<?xml version="1.0" encoding="UTF-8" standalone="no"?>
<svg
   xmlns:dc="http://purl.org/dc/elements/1.1/"
   xmlns:cc="http://creativecommons.org/ns#"
   xmlns:rdf="http://www.w3.org/1999/02/22-rdf-syntax-ns#"
   xmlns:svg="http://www.w3.org/2000/svg"
   xmlns="http://www.w3.org/2000/svg"
   xmlns:sodipodi="http://sodipodi.sourceforge.net/DTD/sodipodi-0.dtd"
   xmlns:inkscape="http://www.inkscape.org/namespaces/inkscape"
   version="1.1"
   id="Layer_1"
   x="0px"
   y="0px"
   viewBox="0 0 1000 1000"
   style="enable-background:new 0 0 1000 1000;"
   xml:space="preserve"
   sodipodi:docname="notfound2.svg"
   inkscape:version="1.0.1 (3bc2e813f5, 2020-09-07, custom)"><metadata
   id="metadata407"><rdf:RDF><cc:Work
       rdf:about=""><dc:format>image/svg+xml</dc:format><dc:type
         rdf:resource="http://purl.org/dc/dcmitype/StillImage" /></cc:Work></rdf:RDF></metadata><defs
   id="defs405" /><sodipodi:namedview
   pagecolor="#ffffff"
   bordercolor="#666666"
   borderopacity="1"
   objecttolerance="10"
   gridtolerance="10"
   guidetolerance="10"
   inkscape:pageopacity="0"
   inkscape:pageshadow="2"
   inkscape:window-width="953"
   inkscape:window-height="480"
   id="namedview403"
   showgrid="false"
   inkscape:zoom="0.31819805"
   inkscape:cx="1096.7057"
   inkscape:cy="-5.8717315"
   inkscape:window-x="45"
   inkscape:window-y="29"
   inkscape:window-maximized="0"
   inkscape:current-layer="Layer_1" />
<style
   type="text/css"
   id="style2">
	.st0{fill:#FFFFFF;}
	.st1{fill:#F29B1C;}
	.st2{fill:#FFC417;}
	.st3{fill:none;stroke:#441A36;stroke-width:6;stroke-linecap:round;stroke-linejoin:round;stroke-miterlimit:10;}
	.st4{fill:#F1C6AD;}
	.st5{fill:#E9B192;}
	.st6{fill:#E4E8EC;}
	.st7{fill:#606060;}
	.st8{fill:#441A36;}
</style>
<rect
   class="st0"
   width="1000"
   height="1000"
   id="rect4" />
<g
   id="g12">
	<circle
   class="st1"
   cx="608.1"
   cy="590.9"
   r="140.1"
   id="circle6" />
	<path
   class="st2"
   d="M597.8,689.9c77.4,0,140.1-62.7,140.1-140.1c0-4.4-0.2-8.8-0.6-13.1c7,16.7,10.9,35,10.9,54.2   c0,77.4-62.7,140.1-140.1,140.1c-73,0-132.9-55.8-139.5-127C489.8,654.4,539.7,689.9,597.8,689.9z"
   id="path8" />
	<circle
   class="st3"
   cx="608.1"
   cy="590.9"
   r="140.1"
   id="circle10" />
</g>
<g
   id="g20">
	<circle
   class="st1"
   cx="372.5"
   cy="590.9"
   r="140.1"
   id="circle14" />
	<path
   class="st2"
   d="M382.8,689.9c-77.4,0-140.1-62.7-140.1-140.1c0-4.4,0.2-8.8,0.6-13.1c-7,16.7-10.9,35-10.9,54.2   c0,77.4,62.7,140.1,140.1,140.1c73,0,132.9-55.8,139.5-127C490.8,654.4,441,689.9,382.8,689.9z"
   id="path16" />
	<circle
   class="st3"
   cx="372.5"
   cy="590.9"
   r="140.1"
   id="circle18" />
</g>
<g
   id="g30">
	<g
   id="g28">
		<ellipse
   class="st4"
   cx="687.5"
   cy="492.1"
   rx="50.4"
   ry="57.6"
   id="ellipse22" />
		<path
   class="st5"
   d="M637.2,489.1c7.9,1.9,16.3,3,25.1,3c30.1,0,56.1-12.2,68.2-29.9c-8.8-16.6-24.8-27.8-43.1-27.8    C660.6,434.4,638.6,458.7,637.2,489.1z"
   id="path24" />
		<ellipse
   class="st3"
   cx="687.5"
   cy="492.1"
   rx="50.4"
   ry="57.6"
   id="ellipse26" />
	</g>
</g>
<g
   id="g40">
	<g
   id="g38">
		<ellipse
   class="st4"
   cx="303.6"
   cy="492.1"
   rx="50.4"
   ry="57.6"
   id="ellipse32" />
		<path
   class="st5"
   d="M353.9,489.1c-7.9,1.9-22.9,17-31.7,18c-38.5,4.7-56.5-8.7-69-15.1c-10.1-5.1,3.7-21.9,7.3-29.9    c8.8-16.6,24.8-27.8,43.1-27.8C330.6,434.4,352.6,458.7,353.9,489.1z"
   id="path34" />
		<ellipse
   class="st3"
   cx="303.6"
   cy="492.1"
   rx="50.4"
   ry="57.6"
   id="ellipse36" />
	</g>
</g>
<ellipse
   class="st6"
   cx="495.6"
   cy="826"
   rx="258.3"
   ry="45.2"
   id="ellipse42" />

<path
   class="st4"
   d="M496.7,692.5L496.7,692.5C387.5,692.5,299,604,299,494.9V359.2h395.3v135.6C694.3,604,605.8,692.5,496.7,692.5z  "
   id="path360" />
<path
   class="st5"
   d="M301.5,506.1c123.7,43.6,250-27.1,278.5-108.4c9.8,50,70.1,86.8,114.4,72.5c0-25.9-0.1-39.8-0.1-39.8  l-123.6-73.5L299,431.5C299,431.5,299.1,498.5,301.5,506.1z"
   id="path362" />
<path
   class="st5"
   d="M496.7,667.9L496.7,667.9c-109.2,0-197.6-88.5-197.6-197.6V495c0,109.2,88.5,197.6,197.6,197.6l0,0  c109.2,0,197.6-88.5,197.6-197.6v-24.7C694.3,579.4,605.8,667.9,496.7,667.9z"
   id="path364" />
<path
   class="st3"
   d="M496.7,692.5L496.7,692.5C387.5,692.5,299,604,299,494.9V359.2h395.3v135.6C694.3,604,605.8,692.5,496.7,692.5z  "
   id="path366" />
<path
   class="st2"
   d="M716,382.6c0-116.6-103-206-224.5-206c-119,0-214.2,94.2-214.2,209.8c-20.1,39.4-14.2,60-9.5,69.5  c24.2,48.3,142.4,50.2,221,6.4c40.9-22.9,75.6-58.4,90.5-79.3c0,0,52.3,89.2,125.5,64.2C726.6,439.6,741.3,405,716,382.6z"
   id="path368" />
<path
   class="st1"
   d="M584.5,373.4c-14.9,21-221.5,148.9-300.2,45.6c-6.4-8.4-5-12-6.9-32.6c-20.1,39.4-14.2,60-9.5,69.5  c24.2,48.3,142.4,50.2,221,6.4c40.9-22.9,75.6-58.4,90.5-79.3c0,0,52.3,89.2,125.5,64.2c15-5.1,31.7-31.2,20.2-53.2  C704.1,441.9,600.7,403.4,584.5,373.4z"
   id="path370" />
<path
   class="st3"
   d="M716,382.6c0-116.6-103-206-224.5-206c-119,0-214.2,94.2-214.2,209.8c-20.1,39.4-14.2,60-9.5,69.5  c24.2,48.3,142.4,50.2,221,6.4c40.9-22.9,75.6-58.4,90.5-79.3c0,0,52.3,89.2,125.5,64.2C726.6,439.6,741.3,405,716,382.6z"
   id="path372" />
<path
   class="st3"
   d="M599.8,334.1c-4.1,19.2-16.1,51.2-50.3,82.5"
   id="path374" />
<path
   class="st3"
   d="M599.8,334.1"
   id="path376" />
<g
   id="g400">
	<g
   id="g382">
		<ellipse
   class="st0"
   cx="496.1"
   cy="616.4"
   rx="34.2"
   ry="17"
   id="ellipse378" />
		<ellipse
   class="st3"
   cx="495.6"
   cy="617"
   rx="34.2"
   ry="17"
   id="ellipse380" />
	</g>
	<g
   id="g396">
		<g
   id="g388">
			<ellipse
   class="st8"
   cx="577.7"
   cy="527.7"
   rx="16.5"
   ry="13.9"
   id="ellipse384" />
			<path
   class="st3"
   d="M561.8,495.5c0,0,26.4,13,50.8-0.1"
   id="path386" />
		</g>
		<g
   id="g394">
			<ellipse
   class="st8"
   cx="413.5"
   cy="527.7"
   rx="16.5"
   ry="13.9"
   id="ellipse390" />
			<path
   class="st3"
   d="M429.3,495.5c0,0-26.4,13-50.8-0.1"
   id="path392" />
		</g>
	</g>
	<path
   class="st3"
   d="M476.6,559.7c4.1,5.7,11.6,9.5,20.1,9.5c8.6,0,16-3.8,20.1-9.5"
   id="path398" />
</g>
</svg>
