<?xml version="1.0" encoding="UTF-8" standalone="no"?>
<svg
   xmlns:dc="http://purl.org/dc/elements/1.1/"
   xmlns:cc="http://creativecommons.org/ns#"
   xmlns:rdf="http://www.w3.org/1999/02/22-rdf-syntax-ns#"
   xmlns:svg="http://www.w3.org/2000/svg"
   xmlns="http://www.w3.org/2000/svg"
   xmlns:sodipodi="http://sodipodi.sourceforge.net/DTD/sodipodi-0.dtd"
   xmlns:inkscape="http://www.inkscape.org/namespaces/inkscape"
   viewBox="0 0 1000 1000"
   version="1.1"
   id="svg238"
   sodipodi:docname="notfound1.svg"
   inkscape:version="1.0.1 (3bc2e813f5, 2020-09-07, custom)">
  <metadata
     id="metadata244">
    <rdf:RDF>
      <cc:Work
         rdf:about="">
        <dc:format>image/svg+xml</dc:format>
        <dc:type
           rdf:resource="http://purl.org/dc/dcmitype/StillImage" />
      </cc:Work>
    </rdf:RDF>
  </metadata>
  <defs
     id="defs242" />
  <sodipodi:namedview
     pagecolor="#ffffff"
     bordercolor="#666666"
     borderopacity="1"
     objecttolerance="10"
     gridtolerance="10"
     guidetolerance="10"
     inkscape:pageopacity="0"
     inkscape:pageshadow="2"
     inkscape:window-width="1366"
     inkscape:window-height="692"
     id="namedview240"
     showgrid="false"
     inkscape:zoom="0.225"
     inkscape:cx="110.12296"
     inkscape:cy="448.08689"
     inkscape:window-x="0"
     inkscape:window-y="0"
     inkscape:window-maximized="1"
     inkscape:current-layer="svg238" />
  <title
     id="title2">108-forget-password</title>
  <rect
     width="1000"
     height="1000"
     style="fill:#fff"
     id="rect4" />
  <ellipse
     cx="365.193"
     cy="728.639"
     rx="154.013"
     ry="96.227"
     style="fill:#ff6242"
     id="ellipse6" />
  <ellipse
     cx="365.193"
     cy="728.639"
     rx="154.013"
     ry="96.227"
     style="fill:none;stroke:#070808;stroke-miterlimit:10;stroke-width:6px"
     id="ellipse8" />
  <path
     d="M352.827,567.386l-22.379,71.153a52.5,52.5,0,0,0,50.077,68.246h0a52.5,52.5,0,0,0,52.351-48.612l6.512-87.778Z"
     transform="translate(0)"
     style="fill:#ffda8f;stroke:#45413c;stroke-linecap:round;stroke-linejoin:round"
     id="path10" />
  <path
     d="M330.448,638.539s45.713,18.015,74.032,2.39,37.108-43.943,37.108-43.943l-10.742-26.367-84.958-3.906Z"
     transform="translate(0)"
     style="fill:#ffbe3d"
     id="path12" />
  <path
     d="M352.827,567.386l-22.379,71.153a52.5,52.5,0,0,0,50.077,68.246h0a52.5,52.5,0,0,0,52.351-48.612l6.512-87.778Z"
     transform="translate(0)"
     style="fill:none;stroke:#070808;stroke-miterlimit:10;stroke-width:6px"
     id="path14" />
  <path
     d="M389.925,468.458a78.693,78.693,0,1,0-157.386,0c8.081,9.845,2.353,21.836,6.567,31.477a78.693,78.693,0,1,0,144.252,0A78.392,78.392,0,0,0,389.925,468.458Z"
     transform="translate(0)"
     style="fill:#724f3d"
     id="path16" />
  <path
     d="M330.919,569.565c-43.461,0-74.7-15.542-73.86-59,1-51.945,44.455-40.755,44.455-51.95,0-18.22-6.793-58.638-4.743-89.895-38.739.937-76.517,13.4-85.453,44.681-5.406,18.92,11.731,44.38,24.575,58.1,3.393,12.726-15.363,13.3,3.213,28.427a78.683,78.683,0,0,0,134.214,79.8C362.156,585.809,344.525,569.565,330.919,569.565Z"
     transform="translate(0)"
     style="fill:#a86c4d"
     id="path18" />
  <path
     d="M389.925,468.458c0-43.461-37.514-63.307-72.106-89.617-41.4-31.493-154.507,14.4-85.28,89.617,19.006,20.65-22.13,7.509,6.567,31.477a78.693,78.693,0,1,0,144.252,0A78.392,78.392,0,0,0,389.925,468.458Z"
     transform="translate(0)"
     style="fill:none;stroke:#070808;stroke-miterlimit:10;stroke-width:6px"
     id="path20" />
  <path
     d="M299.7,408.038H495.484a0,0,0,0,1,0,0v109.14a97.892,97.892,0,0,1-97.892,97.892h0A97.892,97.892,0,0,1,299.7,517.178V408.038A0,0,0,0,1,299.7,408.038Z"
     style="fill:#ffda8f;stroke:#45413c;stroke-linecap:round;stroke-linejoin:round"
     id="path22" />
  <path
     d="M316.6,456.045s25.479,11.245,72.5,5.837c43.844-5.043,79.958-23.92,79.958-23.92s25.154,15.509,25.154,24.519c10.94-3.861,16.088-57.273,16.088-57.273l-39.254-7.078S317.884,430.305,316.6,456.045Z"
     transform="translate(0)"
     style="fill:#ffbe3d"
     id="path24" />
  <path
     d="M410.813,595.119c-80.982,9-108.082-72.207-108.082-72.207-.939,1.3-1.779,2.611-2.557,3.931a97.9,97.9,0,0,0,97.417,88.227h0a97.887,97.887,0,0,0,87.468-53.9l2.39-13.674S481.348,587.282,410.813,595.119Z"
     transform="translate(0)"
     style="fill:#ffbe3d"
     id="path26" />
  <path
     d="M299.7,408.038H495.484a0,0,0,0,1,0,0v109.14a97.892,97.892,0,0,1-97.892,97.892h0A97.892,97.892,0,0,1,299.7,517.178V408.038A0,0,0,0,1,299.7,408.038Z"
     style="fill:none;stroke:#070808;stroke-miterlimit:10;stroke-width:6px"
     id="path28" />
  <path
     d="M460.94,357.182s-15.8,29.978,2.277,57.676c6.026,9.232,29.147,10.364,31.594,33.35,2.951,27.718,52.813-54.327,3.511-87.325C488.98,354.631,464.048,326.88,460.94,357.182Z"
     transform="translate(0)"
     style="fill:#efdd5c"
     id="path30" />
  <path
     d="M460.94,357.182s-15.8,29.978,2.277,57.676c6.026,9.232,29.147,10.364,31.594,33.35,2.951,27.718,52.813-54.327,3.511-87.325C488.98,354.631,464.048,326.88,460.94,357.182Z"
     transform="translate(0)"
     style="fill:#724f3d"
     id="path32" />
  <path
     d="M460.94,357.182s-15.8,29.978,2.277,57.676c6.026,9.232,29.147,10.364,31.594,33.35,2.951,27.718,50.806-51.652,3.511-87.325C489.348,354.115,464.048,326.88,460.94,357.182Z"
     transform="translate(0)"
     style="fill:none;stroke:#070808;stroke-linecap:round;stroke-linejoin:round;stroke-width:6px"
     id="path34" />
  <path
     d="M301.514,458.62c60.256-1.035,122.615-11.576,174.428-49.906,15.169-11.221,23.607-43.391,7.529-62.41-63.71-75.364-162.018-17.959-181.93,14.186C280.959,393.717,273.2,427.609,301.514,458.62Z"
     transform="translate(0)"
     style="fill:#a86c4d"
     id="path36" />
  <path
     d="M488.245,353.71c-1.843,12.168-7.838,23.426-15.614,29.179C426.71,416.859,372.506,429,318.824,432.046A35.427,35.427,0,0,1,283.4,409.132c-.03-.081-.059-.162-.088-.243-10.1,11.222-9.274,35.124,18.2,49.731,60.256-1.035,122.615-11.576,174.428-49.906C489.28,398.847,497.406,372.787,488.245,353.71Z"
     transform="translate(0)"
     style="fill:#724f3d"
     id="path38" />
  <path
     d="M299.684,457.477c4.571,4.473,129.772-5.129,176.258-48.763,13.758-12.913,23.607-43.391,7.529-62.41-63.71-75.364-162.018-17.959-181.93,14.186-6.528,10.538-12.869,22.215-16.8,34.268"
     transform="translate(0)"
     style="fill:none;stroke:#070808;stroke-linecap:round;stroke-linejoin:round;stroke-width:6px"
     id="path40" />
  <path
     d="M481.911,470.308s-8.306-10.993-22.924-10.438"
     transform="translate(0)"
     style="fill:none;stroke:#070808;stroke-linecap:round;stroke-miterlimit:10;stroke-width:6px"
     id="path42" />
  <ellipse
     cx="468.095"
     cy="484.39"
     rx="5.231"
     ry="9.231"
     transform="translate(-31.135 32.156) rotate(-3.808)"
     style="fill:#070808"
     id="ellipse44" />
  <polyline
     points="431.29 482.639 450.668 513.447 429.784 518.668"
     style="fill:none;stroke:#070808;stroke-linecap:round;stroke-linejoin:round;stroke-width:6px"
     id="polyline46" />
  <path
     d="M365.874,481.7s7.917-11.276,22.545-11.233"
     transform="translate(0)"
     style="fill:none;stroke:#070808;stroke-linecap:round;stroke-miterlimit:10;stroke-width:6px"
     id="path48" />
  <ellipse
     cx="386.128"
     cy="493.936"
     rx="5.231"
     ry="9.231"
     transform="translate(-90.355 86.466) rotate(-11.448)"
     style="fill:#070808"
     id="ellipse50" />
  <path
     d="M405.115,556.139s19.848-26.777,48.077-11.689"
     transform="translate(0)"
     style="fill:none;stroke:#070808;stroke-linecap:round;stroke-linejoin:round;stroke-width:6px"
     id="path52" />
  <path
     d="M460.94,357.182s-6.727,35.62-60.392,38.494"
     transform="translate(0)"
     style="fill:none;stroke:#070808;stroke-linecap:round;stroke-linejoin:round;stroke-width:6px"
     id="path54" />
  <path
     d="M314.173,511.687c-25.676,10.062-45.588-14.937-45.106-26.023,3.123-71.822,47.37-24.209,47.37-24.209"
     transform="translate(0)"
     style="fill:#ffda8f;stroke:#45413c;stroke-linecap:round;stroke-linejoin:round"
     id="path56" />
  <path
     d="M314.173,511.687c-31.941,15.745-53.086-28.1-46.364-45.311,17.116-43.808,48.628-4.921,48.628-4.921"
     transform="translate(0)"
     style="fill:none;stroke:#070808;stroke-linecap:round;stroke-miterlimit:10;stroke-width:6px"
     id="path58" />
  <rect
     x="593.245"
     y="174.179"
     width="274.247"
     height="211.69"
     rx="43.906"
     style="fill:#cfd5ec"
     id="rect60" />
  <rect
     x="607.249"
     y="157.702"
     width="274.247"
     height="211.69"
     rx="43.906"
     style="fill:#73e1ff"
     id="rect62" />
  <rect
     x="607.249"
     y="157.702"
     width="274.247"
     height="211.69"
     rx="43.906"
     style="fill:none;stroke:#070808;stroke-miterlimit:10;stroke-width:6px"
     id="rect64" />
  <circle
     cx="617.449"
     cy="418.222"
     r="23.449"
     style="fill:none;stroke:#070808;stroke-miterlimit:10;stroke-width:6px"
     id="circle66" />
  <circle
     cx="576.254"
     cy="461.524"
     r="14.491"
     style="fill:none;stroke:#070808;stroke-miterlimit:10;stroke-width:6px"
     id="circle68" />
  <rect
     x="651.217"
     y="283.054"
     width="179.601"
     height="50.157"
     rx="11.309"
     style="fill:#fff"
     id="rect70" />
  <path
     d="M674.2,322.121a11.31,11.31,0,0,1-11.309-11.31V283.273c0-.074.01-.146.011-.219h-.375a11.309,11.309,0,0,0-11.309,11.309V321.9a11.309,11.309,0,0,0,11.309,11.309H819.508a11.3,11.3,0,0,0,11.3-11.089Z"
     transform="translate(0)"
     style="fill:#e4e4e4"
     id="path72" />
  <rect
     x="651.217"
     y="283.054"
     width="179.601"
     height="50.157"
     rx="11.309"
     style="fill:none;stroke:#070808;stroke-miterlimit:10;stroke-width:6px"
     id="rect74" />
  <circle
     cx="687.96"
     cy="306.595"
     r="8.352"
     style="fill:#070808"
     id="circle76" />
  <circle
     cx="714.923"
     cy="306.595"
     r="8.352"
     style="fill:#070808"
     id="circle78" />
  <circle
     cx="741.887"
     cy="306.595"
     r="8.352"
     style="fill:#070808"
     id="circle80" />
  <circle
     cx="768.85"
     cy="306.595"
     r="8.352"
     style="fill:#070808"
     id="circle82" />
  <circle
     cx="795.814"
     cy="306.595"
     r="8.352"
     style="fill:#070808"
     id="circle84" />
  <path
     d="M655.7,257.577s83.7-13.628,72.561-44.295c-9.356-25.765-33.007-6.855-32.185-.742,5.737,42.682,71.677,47.578,83.935,14.035,16.826-46.042-18.994-42.262-12.311-18.906s37.895-17.743,44.579,16.888"
     transform="translate(0)"
     style="fill:none;stroke:#070808;stroke-linecap:round;stroke-miterlimit:10;stroke-width:6px"
     id="path86" />
  <path
     d="M723.98,503.4a11.852,11.852,0,0,1,2.1-6.644,21.672,21.672,0,0,1,4.549-5.1,28.6,28.6,0,0,0,4.548-4.549,8.352,8.352,0,0,0,2.1-5.221,5.134,5.134,0,0,0-1.9-4.272,8.347,8.347,0,0,0-5.3-1.5q-6.644,0-9.413,7.039l-9.334-5.379a18.529,18.529,0,0,1,7.554-9.057,21.589,21.589,0,0,1,11.589-3.2,19.508,19.508,0,0,1,12.458,4.152,13.764,13.764,0,0,1,5.261,11.43,13.934,13.934,0,0,1-1.385,6.17,18.85,18.85,0,0,1-3.323,4.866q-1.938,2.016-3.875,3.8a25.043,25.043,0,0,0-3.323,3.678,6.42,6.42,0,0,0-1.384,3.8Zm10.2,17.64a6.685,6.685,0,1,1,1.977-4.746A6.483,6.483,0,0,1,734.185,521.041Z"
     transform="translate(0)"
     style="fill:#ea7aaf"
     id="path88" />
  <path
     d="M480,226.055a14.437,14.437,0,0,1,2.556-8.1,26.425,26.425,0,0,1,5.543-6.218,34.846,34.846,0,0,0,5.544-5.544,10.172,10.172,0,0,0,2.554-6.363,6.256,6.256,0,0,0-2.313-5.206,10.171,10.171,0,0,0-6.46-1.832q-8.1,0-11.473,8.581l-11.377-6.556a22.589,22.589,0,0,1,9.208-11.04,26.313,26.313,0,0,1,14.124-3.9,23.773,23.773,0,0,1,15.185,5.062Q509.5,190,509.5,198.867a16.994,16.994,0,0,1-1.687,7.52,23.009,23.009,0,0,1-4.049,5.929q-2.364,2.459-4.724,4.628a30.434,30.434,0,0,0-4.05,4.483,7.824,7.824,0,0,0-1.686,4.628Zm12.437,21.5a8.145,8.145,0,1,1,2.411-5.785A7.9,7.9,0,0,1,492.437,247.555Z"
     transform="translate(0)"
     style="fill:#ea7aaf"
     id="path90" />
</svg>
