<?xml version="1.0" encoding="UTF-8" standalone="no"?>
<svg
   xmlns:dc="http://purl.org/dc/elements/1.1/"
   xmlns:cc="http://creativecommons.org/ns#"
   xmlns:rdf="http://www.w3.org/1999/02/22-rdf-syntax-ns#"
   xmlns:svg="http://www.w3.org/2000/svg"
   xmlns="http://www.w3.org/2000/svg"
   xmlns:sodipodi="http://sodipodi.sourceforge.net/DTD/sodipodi-0.dtd"
   xmlns:inkscape="http://www.inkscape.org/namespaces/inkscape"
   version="1.1"
   id="svg2"
   xml:space="preserve"
   width="372.98666"
   height="456.53333"
   viewBox="0 0 372.98666 456.53333"
   sodipodi:docname="carrinho.eps"><metadata
     id="metadata8"><rdf:RDF><cc:Work
         rdf:about=""><dc:format>image/svg+xml</dc:format><dc:type
           rdf:resource="http://purl.org/dc/dcmitype/StillImage" /></cc:Work></rdf:RDF></metadata><defs
     id="defs6" /><sodipodi:namedview
     pagecolor="#ffffff"
     bordercolor="#666666"
     borderopacity="1"
     objecttolerance="10"
     gridtolerance="10"
     guidetolerance="10"
     inkscape:pageopacity="0"
     inkscape:pageshadow="2"
     inkscape:window-width="640"
     inkscape:window-height="480"
     id="namedview4" /><g
     id="g10"
     inkscape:groupmode="layer"
     inkscape:label="ink_ext_XXXXXX"
     transform="matrix(1.3333333,0,0,-1.3333333,0,456.53333)"><g
       id="g12"
       transform="scale(0.1)"><path
         d="M 1770.07,1005.45 H 319.719 C 143.129,1005.45 0,1148.62 0,1325.17 c 0,176.55 143.129,319.68 319.719,319.68 H 1770.07 c 213.87,0 387.88,181.37 387.88,404.36 0,222.98 -174.01,404.4 -387.88,404.4 H 319.719 C 143.129,2453.61 0,2596.69 0,2773.29 v 330.97 c 0,176.6 143.129,319.72 319.719,319.72 176.551,0 319.679,-143.12 319.679,-319.72 v -11.3 H 1770.07 c 566.45,0 1027.32,-468.19 1027.32,-1043.75 0,-575.52 -460.87,-1043.76 -1027.32,-1043.76"
         style="fill:#211d1d;fill-opacity:1;fill-rule:nonzero;stroke:none"
         id="path14" /><path
         d="M 2449.79,338.859 C 2449.79,151.711 2298.08,0 2110.88,0 c -187.16,0 -338.9,151.711 -338.9,338.859 0,187.153 151.74,338.911 338.9,338.911 187.2,0 338.91,-151.758 338.91,-338.911"
         style="fill:#211d1d;fill-opacity:1;fill-rule:nonzero;stroke:none"
         id="path16" /><path
         d="M 797.684,338.859 C 797.684,151.711 645.969,0 458.773,0 271.617,0 119.867,151.711 119.867,338.859 c 0,187.153 151.75,338.911 338.906,338.911 187.196,0 338.911,-151.758 338.911,-338.911"
         style="fill:#211d1d;fill-opacity:1;fill-rule:nonzero;stroke:none"
         id="path18" /></g></g></svg>
