<svg aria-hidden="true" style="position: absolute; width: 0; height: 0; overflow: hidden;" version="1.1" xmlns="http://www.w3.org/2000/svg" xmlns:xlink="http://www.w3.org/1999/xlink">
  <defs>
    <symbol id="icon-facebook2" viewBox="0 0 32 32">
      <path d="M29 0h-26c-1.65 0-3 1.35-3 3v26c0 1.65 1.35 3 3 3h13v-14h-4v-4h4v-2c0-3.306 2.694-6 6-6h4v4h-4c-1.1 0-2 0.9-2 2v2h6l-1 4h-5v14h9c1.65 0 3-1.35 3-3v-26c0-1.65-1.35-3-3-3z"></path>
    </symbol>
    <symbol id="icon-linkedin" viewBox="0 0 32 32">
      <path d="M29 0h-26c-1.65 0-3 1.35-3 3v26c0 1.65 1.35 3 3 3h26c1.65 0 3-1.35 3-3v-26c0-1.65-1.35-3-3-3zM12 26h-4v-14h4v14zM10 10c-1.106 0-2-0.894-2-2s0.894-2 2-2c1.106 0 2 0.894 2 2s-0.894 2-2 2zM26 26h-4v-8c0-1.106-0.894-2-2-2s-2 0.894-2 2v8h-4v-14h4v2.481c0.825-1.131 2.087-2.481 3.5-2.481 2.488 0 4.5 2.238 4.5 5v9z"></path>
    </symbol>
    <symbol id="icon-instagram" viewBox="0 0 24 28">
      <path d="M16 14c0-2.203-1.797-4-4-4s-4 1.797-4 4 1.797 4 4 4 4-1.797 4-4zM18.156 14c0 3.406-2.75 6.156-6.156 6.156s-6.156-2.75-6.156-6.156 2.75-6.156 6.156-6.156 6.156 2.75 6.156 6.156zM19.844 7.594c0 0.797-0.641 1.437-1.437 1.437s-1.437-0.641-1.437-1.437 0.641-1.437 1.437-1.437 1.437 0.641 1.437 1.437zM12 4.156c-1.75 0-5.5-0.141-7.078 0.484-0.547 0.219-0.953 0.484-1.375 0.906s-0.688 0.828-0.906 1.375c-0.625 1.578-0.484 5.328-0.484 7.078s-0.141 5.5 0.484 7.078c0.219 0.547 0.484 0.953 0.906 1.375s0.828 0.688 1.375 0.906c1.578 0.625 5.328 0.484 7.078 0.484s5.5 0.141 7.078-0.484c0.547-0.219 0.953-0.484 1.375-0.906s0.688-0.828 0.906-1.375c0.625-1.578 0.484-5.328 0.484-7.078s0.141-5.5-0.484-7.078c-0.219-0.547-0.484-0.953-0.906-1.375s-0.828-0.688-1.375-0.906c-1.578-0.625-5.328-0.484-7.078-0.484zM24 14c0 1.656 0.016 3.297-0.078 4.953-0.094 1.922-0.531 3.625-1.937 5.031s-3.109 1.844-5.031 1.937c-1.656 0.094-3.297 0.078-4.953 0.078s-3.297 0.016-4.953-0.078c-1.922-0.094-3.625-0.531-5.031-1.937s-1.844-3.109-1.937-5.031c-0.094-1.656-0.078-3.297-0.078-4.953s-0.016-3.297 0.078-4.953c0.094-1.922 0.531-3.625 1.937-5.031s3.109-1.844 5.031-1.937c1.656-0.094 3.297-0.078 4.953-0.078s3.297-0.016 4.953 0.078c1.922 0.094 3.625 0.531 5.031 1.937s1.844 3.109 1.937 5.031c0.094 1.656 0.078 3.297 0.078 4.953z"></path>
    </symbol>

    <symbol id="icon-chevron-left" viewBox="0 0 21 28">
      <path d="M18.297 4.703l-8.297 8.297 8.297 8.297c0.391 0.391 0.391 1.016 0 1.406l-2.594 2.594c-0.391 0.391-1.016 0.391-1.406 0l-11.594-11.594c-0.391-0.391-0.391-1.016 0-1.406l11.594-11.594c0.391-0.391 1.016-0.391 1.406 0l2.594 2.594c0.391 0.391 0.391 1.016 0 1.406z"></path>
    </symbol>
    <symbol id="icon-chevron-right" viewBox="0 0 19 28">
      <path d="M17.297 13.703l-11.594 11.594c-0.391 0.391-1.016 0.391-1.406 0l-2.594-2.594c-0.391-0.391-0.391-1.016 0-1.406l8.297-8.297-8.297-8.297c-0.391-0.391-0.391-1.016 0-1.406l2.594-2.594c0.391-0.391 1.016-0.391 1.406 0l11.594 11.594c0.391 0.391 0.391 1.016 0 1.406z"></path>
    </symbol>

    <symbol id="icon-building-o" viewBox="0 0 22 28">
      <path d="M6 20.5v1c0 0.266-0.234 0.5-0.5 0.5h-1c-0.266 0-0.5-0.234-0.5-0.5v-1c0-0.266 0.234-0.5 0.5-0.5h1c0.266 0 0.5 0.234 0.5 0.5zM6 16.5v1c0 0.266-0.234 0.5-0.5 0.5h-1c-0.266 0-0.5-0.234-0.5-0.5v-1c0-0.266 0.234-0.5 0.5-0.5h1c0.266 0 0.5 0.234 0.5 0.5zM10 16.5v1c0 0.266-0.234 0.5-0.5 0.5h-1c-0.266 0-0.5-0.234-0.5-0.5v-1c0-0.266 0.234-0.5 0.5-0.5h1c0.266 0 0.5 0.234 0.5 0.5zM6 12.5v1c0 0.266-0.234 0.5-0.5 0.5h-1c-0.266 0-0.5-0.234-0.5-0.5v-1c0-0.266 0.234-0.5 0.5-0.5h1c0.266 0 0.5 0.234 0.5 0.5zM18 20.5v1c0 0.266-0.234 0.5-0.5 0.5h-1c-0.266 0-0.5-0.234-0.5-0.5v-1c0-0.266 0.234-0.5 0.5-0.5h1c0.266 0 0.5 0.234 0.5 0.5zM14 16.5v1c0 0.266-0.234 0.5-0.5 0.5h-1c-0.266 0-0.5-0.234-0.5-0.5v-1c0-0.266 0.234-0.5 0.5-0.5h1c0.266 0 0.5 0.234 0.5 0.5zM10 12.5v1c0 0.266-0.234 0.5-0.5 0.5h-1c-0.266 0-0.5-0.234-0.5-0.5v-1c0-0.266 0.234-0.5 0.5-0.5h1c0.266 0 0.5 0.234 0.5 0.5zM6 8.5v1c0 0.266-0.234 0.5-0.5 0.5h-1c-0.266 0-0.5-0.234-0.5-0.5v-1c0-0.266 0.234-0.5 0.5-0.5h1c0.266 0 0.5 0.234 0.5 0.5zM18 16.5v1c0 0.266-0.234 0.5-0.5 0.5h-1c-0.266 0-0.5-0.234-0.5-0.5v-1c0-0.266 0.234-0.5 0.5-0.5h1c0.266 0 0.5 0.234 0.5 0.5zM14 12.5v1c0 0.266-0.234 0.5-0.5 0.5h-1c-0.266 0-0.5-0.234-0.5-0.5v-1c0-0.266 0.234-0.5 0.5-0.5h1c0.266 0 0.5 0.234 0.5 0.5zM10 8.5v1c0 0.266-0.234 0.5-0.5 0.5h-1c-0.266 0-0.5-0.234-0.5-0.5v-1c0-0.266 0.234-0.5 0.5-0.5h1c0.266 0 0.5 0.234 0.5 0.5zM6 4.5v1c0 0.266-0.234 0.5-0.5 0.5h-1c-0.266 0-0.5-0.234-0.5-0.5v-1c0-0.266 0.234-0.5 0.5-0.5h1c0.266 0 0.5 0.234 0.5 0.5zM18 12.5v1c0 0.266-0.234 0.5-0.5 0.5h-1c-0.266 0-0.5-0.234-0.5-0.5v-1c0-0.266 0.234-0.5 0.5-0.5h1c0.266 0 0.5 0.234 0.5 0.5zM14 8.5v1c0 0.266-0.234 0.5-0.5 0.5h-1c-0.266 0-0.5-0.234-0.5-0.5v-1c0-0.266 0.234-0.5 0.5-0.5h1c0.266 0 0.5 0.234 0.5 0.5zM10 4.5v1c0 0.266-0.234 0.5-0.5 0.5h-1c-0.266 0-0.5-0.234-0.5-0.5v-1c0-0.266 0.234-0.5 0.5-0.5h1c0.266 0 0.5 0.234 0.5 0.5zM18 8.5v1c0 0.266-0.234 0.5-0.5 0.5h-1c-0.266 0-0.5-0.234-0.5-0.5v-1c0-0.266 0.234-0.5 0.5-0.5h1c0.266 0 0.5 0.234 0.5 0.5zM14 4.5v1c0 0.266-0.234 0.5-0.5 0.5h-1c-0.266 0-0.5-0.234-0.5-0.5v-1c0-0.266 0.234-0.5 0.5-0.5h1c0.266 0 0.5 0.234 0.5 0.5zM18 4.5v1c0 0.266-0.234 0.5-0.5 0.5h-1c-0.266 0-0.5-0.234-0.5-0.5v-1c0-0.266 0.234-0.5 0.5-0.5h1c0.266 0 0.5 0.234 0.5 0.5zM14 26h6v-24h-18v24h6v-3.5c0-0.266 0.234-0.5 0.5-0.5h5c0.266 0 0.5 0.234 0.5 0.5v3.5zM22 1v26c0 0.547-0.453 1-1 1h-20c-0.547 0-1-0.453-1-1v-26c0-0.547 0.453-1 1-1h20c0.547 0 1 0.453 1 1z"></path>
    </symbol>
    <symbol id="icon-phone" viewBox="0 0 22 28">
      <path d="M22 19.375c0 0.562-0.25 1.656-0.484 2.172-0.328 0.766-1.203 1.266-1.906 1.656-0.922 0.5-1.859 0.797-2.906 0.797-1.453 0-2.766-0.594-4.094-1.078-0.953-0.344-1.875-0.766-2.734-1.297-2.656-1.641-5.859-4.844-7.5-7.5-0.531-0.859-0.953-1.781-1.297-2.734-0.484-1.328-1.078-2.641-1.078-4.094 0-1.047 0.297-1.984 0.797-2.906 0.391-0.703 0.891-1.578 1.656-1.906 0.516-0.234 1.609-0.484 2.172-0.484 0.109 0 0.219 0 0.328 0.047 0.328 0.109 0.672 0.875 0.828 1.188 0.5 0.891 0.984 1.797 1.5 2.672 0.25 0.406 0.719 0.906 0.719 1.391 0 0.953-2.828 2.344-2.828 3.187 0 0.422 0.391 0.969 0.609 1.344 1.578 2.844 3.547 4.813 6.391 6.391 0.375 0.219 0.922 0.609 1.344 0.609 0.844 0 2.234-2.828 3.187-2.828 0.484 0 0.984 0.469 1.391 0.719 0.875 0.516 1.781 1 2.672 1.5 0.313 0.156 1.078 0.5 1.188 0.828 0.047 0.109 0.047 0.219 0.047 0.328z"></path>
    </symbol>
    <symbol id="icon-map-marker" viewBox="0 0 16 28">
      <path d="M12 10c0-2.203-1.797-4-4-4s-4 1.797-4 4 1.797 4 4 4 4-1.797 4-4zM16 10c0 0.953-0.109 1.937-0.516 2.797l-5.688 12.094c-0.328 0.688-1.047 1.109-1.797 1.109s-1.469-0.422-1.781-1.109l-5.703-12.094c-0.406-0.859-0.516-1.844-0.516-2.797 0-4.422 3.578-8 8-8s8 3.578 8 8z"></path>
    </symbol>
    <symbol id="icon-mobile" viewBox="0 0 32 32">
      <path d="M23 0h-14c-1.65 0-3 1.35-3 3v26c0 1.65 1.35 3 3 3h14c1.65 0 3-1.35 3-3v-26c0-1.65-1.35-3-3-3zM12 1.5h8v1h-8v-1zM16 30c-1.105 0-2-0.895-2-2s0.895-2 2-2 2 0.895 2 2-0.895 2-2 2zM24 24h-16v-20h16v20z"></path>
    </symbol>
    <symbol id="icon-whatsapp" viewBox="0 0 24 28">
      <path d="M15.391 15.219c0.266 0 2.812 1.328 2.922 1.516 0.031 0.078 0.031 0.172 0.031 0.234 0 0.391-0.125 0.828-0.266 1.188-0.359 0.875-1.813 1.437-2.703 1.437-0.75 0-2.297-0.656-2.969-0.969-2.234-1.016-3.625-2.75-4.969-4.734-0.594-0.875-1.125-1.953-1.109-3.031v-0.125c0.031-1.031 0.406-1.766 1.156-2.469 0.234-0.219 0.484-0.344 0.812-0.344 0.187 0 0.375 0.047 0.578 0.047 0.422 0 0.5 0.125 0.656 0.531 0.109 0.266 0.906 2.391 0.906 2.547 0 0.594-1.078 1.266-1.078 1.625 0 0.078 0.031 0.156 0.078 0.234 0.344 0.734 1 1.578 1.594 2.141 0.719 0.688 1.484 1.141 2.359 1.578 0.109 0.063 0.219 0.109 0.344 0.109 0.469 0 1.25-1.516 1.656-1.516zM12.219 23.5c5.406 0 9.812-4.406 9.812-9.812s-4.406-9.812-9.812-9.812-9.812 4.406-9.812 9.812c0 2.063 0.656 4.078 1.875 5.75l-1.234 3.641 3.781-1.203c1.594 1.047 3.484 1.625 5.391 1.625zM12.219 1.906c6.5 0 11.781 5.281 11.781 11.781s-5.281 11.781-11.781 11.781c-1.984 0-3.953-0.5-5.703-1.469l-6.516 2.094 2.125-6.328c-1.109-1.828-1.687-3.938-1.687-6.078 0-6.5 5.281-11.781 11.781-11.781z"></path>
    </symbol>
    <symbol id="icon-search" viewBox="0 0 26 28">
      <path d="M18 13c0-3.859-3.141-7-7-7s-7 3.141-7 7 3.141 7 7 7 7-3.141 7-7zM26 26c0 1.094-0.906 2-2 2-0.531 0-1.047-0.219-1.406-0.594l-5.359-5.344c-1.828 1.266-4.016 1.937-6.234 1.937-6.078 0-11-4.922-11-11s4.922-11 11-11 11 4.922 11 11c0 2.219-0.672 4.406-1.937 6.234l5.359 5.359c0.359 0.359 0.578 0.875 0.578 1.406z"></path>
    </symbol>
    <symbol id="icon-login" viewBox="0 0 24 24">
      <path d="M11.016 6.984l-1.406 1.406 2.578 2.625h-10.172v1.969h10.172l-2.578 2.625 1.406 1.406 4.969-5.016zM20.016 18.984h-8.016v2.016h8.016q0.797 0 1.383-0.586t0.586-1.43v-13.969q0-0.844-0.586-1.43t-1.383-0.586h-8.016v2.016h8.016v13.969z"></path>
    </symbol>
    <symbol id="icon-logout" viewBox="0 0 24 24">
      <path d="M3.984 5.016v13.969h8.016v2.016h-8.016q-0.797 0-1.383-0.609t-0.586-1.406v-13.969q0-0.797 0.586-1.406t1.383-0.609h8.016v2.016h-8.016zM17.016 6.984l4.969 5.016-4.969 5.016-1.406-1.453 2.578-2.578h-10.172v-1.969h10.172l-2.578-2.625z"></path>
    </symbol>
    <symbol id="icon-user-o" viewBox="0 0 24 28">
      <path d="M18.766 12.25c2.203 0.641 5.234 2.812 5.234 9.922 0 3.219-2.391 5.828-5.328 5.828h-13.344c-2.938 0-5.328-2.609-5.328-5.828 0-7.109 3.031-9.281 5.234-9.922-0.781-1.234-1.234-2.688-1.234-4.25 0-4.406 3.594-8 8-8s8 3.594 8 8c0 1.563-0.453 3.016-1.234 4.25zM12 2c-3.313 0-6 2.688-6 6s2.688 6 6 6 6-2.688 6-6-2.688-6-6-6zM18.672 26c1.828 0 3.328-1.703 3.328-3.828 0-4.922-1.656-8-4.75-8.156-1.406 1.234-3.234 1.984-5.25 1.984s-3.844-0.75-5.25-1.984c-3.094 0.156-4.75 3.234-4.75 8.156 0 2.125 1.5 3.828 3.328 3.828h13.344z"></path>
    </symbol>
    <symbol id="icon-heart" viewBox="0 0 28 28">
      <path d="M14 26c-0.25 0-0.5-0.094-0.688-0.281l-9.75-9.406c-0.125-0.109-3.563-3.25-3.563-7 0-4.578 2.797-7.313 7.469-7.313 2.734 0 5.297 2.156 6.531 3.375 1.234-1.219 3.797-3.375 6.531-3.375 4.672 0 7.469 2.734 7.469 7.313 0 3.75-3.437 6.891-3.578 7.031l-9.734 9.375c-0.187 0.187-0.438 0.281-0.688 0.281z"></path>
    </symbol>
    <symbol id="icon-shopping-cart" viewBox="0 0 26 28">
      <path d="M10 24c0 1.094-0.906 2-2 2s-2-0.906-2-2 0.906-2 2-2 2 0.906 2 2zM24 24c0 1.094-0.906 2-2 2s-2-0.906-2-2 0.906-2 2-2 2 0.906 2 2zM26 7v8c0 0.5-0.391 0.938-0.891 1l-16.312 1.906c0.078 0.359 0.203 0.719 0.203 1.094 0 0.359-0.219 0.688-0.375 1h14.375c0.547 0 1 0.453 1 1s-0.453 1-1 1h-16c-0.547 0-1-0.453-1-1 0-0.484 0.703-1.656 0.953-2.141l-2.766-12.859h-3.187c-0.547 0-1-0.453-1-1s0.453-1 1-1h4c1.047 0 1.078 1.25 1.234 2h18.766c0.547 0 1 0.453 1 1z"></path>
    </symbol>

    <symbol id="icon-calendar" viewBox="0 0 375.68 373.907">
      <path d="M69.265 373.907c-1.865-.262-3.738-.478-5.594-.793-16.912-2.87-30.713-16.335-33.87-33.203a53.417 53.417 0 0 1-.917-9.611c-.083-27.555-.073-55.108-.08-82.662-.002-14.64.013-29.282.029-43.923.001-.844.08-1.69.133-2.758.473.346.827.59 1.165.855 5.363 4.207 10.778 8.345 16.7 11.748 2.821 1.619 5.706 3.147 8.656 4.513 1.668.772 2.28 1.798 2.276 3.614-.042 22.402-.023 44.804-.02 67.206.003 13.304-.028 26.608.045 39.912.014 2.59.19 5.232.728 7.759 1.141 5.356 5.687 9.137 11.136 9.573 1.623.13 3.255.194 4.882.195 55.63.01 111.26.01 166.889.006 29.869 0 59.738.009 89.606-.058 2.284-.006 4.647-.312 6.832-.954 4.988-1.462 8.41-6.095 8.666-11.283.082-1.693.133-3.39.133-5.084.007-61.042.005-122.084.005-183.127v-1.424H225.428c4.624-14.35 6.517-28.917 5.339-43.857-1.174-14.87-5.242-28.97-11.312-42.7.462-.023.801-.054 1.141-.054 12.717-.002 25.435.014 38.152-.029 1.035-.003 1.27.344 1.268 1.27-.01 6.945-.028 13.89.032 20.835.032 3.615-.103 7.271.384 10.832 1.74 12.72 11.51 22.616 24.212 24.451 11.632 1.679 23.88-3.723 29.712-14.707 2.141-4.03 3.113-8.37 3.19-12.878.16-9.419.185-18.84.263-28.26.004-.414 0-.828 0-1.259.235-.047.358-.093.479-.093 6.225.042 12.475-.242 18.672.204 12.568.904 22.695 6.622 30.21 16.729 5.666 7.62 8.211 16.35 8.342 25.788.096 6.912.041 13.824.061 20.737.002.484.066.968.102 1.454v209.75c-.258 2.096-.432 4.205-.783 6.284-2.939 17.39-16.79 31.268-34.125 34.214-1.856.314-3.73.528-5.595.788H69.265" />
      <path d="M0 104.673c.121-1.421.254-2.841.362-4.264.996-13.048 4.222-25.545 9.375-37.546 1.784-4.154 3.812-8.204 5.87-12.602-.085-.054-.415-.209-.678-.441-4.008-3.539-7.998-7.097-12.011-10.63-2.346-2.065-2.288-4.94.216-6.814.449-.336 1.032-.561 1.587-.677 7.97-1.663 16.035-2.426 24.17-2.511 7.923-.084 15.845-.19 23.768-.263 3.19-.028 4.924 1.522 5.027 4.808.186 5.896.295 11.798.257 17.695-.063 9.565-.854 19.073-2.76 28.464-.874 4.312-3.74 5.295-7.135 2.452-3.8-3.181-7.57-6.397-11.353-9.599-.198-.166-.401-.324-.71-.574-.917 1.12-1.871 2.185-2.713 3.333-4.102 5.596-6.567 11.92-7.825 18.681-4.982 26.8 1.12 50.638 19.505 70.992 12.188 13.496 27.207 22.332 45.008 26.264 9.96 2.199 20.02 2.598 30.125 1.146 20.063-2.884 37.055-11.738 50.852-26.566 11.08-11.908 18.024-25.984 21.21-41.914 5.96-29.804-5.45-60.2-27.48-79.751-12.764-11.325-27.646-18.09-44.525-20.461-15.965-2.244-31.301-.132-45.934 6.744-.644.304-1.32.542-2.09.857-1.29-4.287-3.031-8.281-6.195-11.495-3.216-3.266-7.197-4.942-11.825-5.636.307-.216.49-.37.695-.485 10.71-5.959 22.099-10.055 34.18-12.083C93.717 1 98.542.684 103.33.147c.321-.036.639-.102.959-.154h8.413c1.425.123 2.85.251 4.276.364 21.667 1.735 41.06 9.326 57.973 22.955 18.536 14.939 31.41 33.764 37.964 56.756 3.338 11.712 4.649 23.679 3.594 35.8-2.809 32.333-17.437 58.36-42.764 78.379-14.18 11.206-30.4 18.17-48.261 20.877-32.074 4.86-60.743-3.21-85.863-23.653-15.13-12.315-26.203-27.655-33.055-45.967a101.316 101.316 0 0 1-5.992-25.908c-.208-2.168-.384-4.34-.574-6.51v-8.413M274.517 65.647c0-7.598-.004-15.195.003-22.794.001-2.11.403-4.153 1.25-6.084 1.605-3.656 4.391-6.029 8.178-7.177 3.775-1.143 7.565-.997 11.208.49 5.225 2.13 7.841 6.243 8.079 11.76.204 4.753.088 9.52.09 14.28.004 10.045.018 20.087-.021 30.131-.024 5.863-2.355 10.514-7.603 13.388-6.034 3.306-14.43 1.474-18.557-3.93-1.487-1.944-2.404-4.15-2.424-6.588-.061-7.826-.023-15.651-.023-23.476h-.18M216.888 201.867v-28.448h28.565v1.109c0 8.704-.016 17.41.022 26.115.004.978-.238 1.253-1.244 1.248-8.738-.044-17.475-.024-26.214-.024h-1.129M187.568 259.548h-28.445v-28.395h28.445v28.395M216.899 231.156h28.458v28.37H216.9v-28.37M159.093 317.296v-28.41h28.435v28.41h-28.435M129.721 259.583h-28.46v-28.347h28.46v28.347M274.665 288.897h1.194c8.705 0 17.41.015 26.116-.02.958-.004 1.269.202 1.264 1.23-.046 8.706-.026 17.41-.026 26.117v1.05h-28.548v-28.377M303.113 173.424v28.427h-28.396v-28.427h28.396M303.097 231.125v28.439h-28.33v-28.439h28.33M101.36 317.301V288.87h28.363v28.432H101.36M245.32 288.993v28.366c-.323.022-.633.065-.944.065-8.8.004-17.599-.01-26.399.023-.861.002-1.098-.235-1.096-1.097.031-8.798.024-17.598.01-26.398-.002-.687.086-1.052.934-1.05 8.898.03 17.795.02 26.692.022.251 0 .503.043.803.07" />
      <path d="M90.811 108.016c-.005-9.157 6.643-15.66 15.182-15.464.163.004.343-.03.486.028 2.18.879 3.784-.197 5.264-1.584 5.735-5.37 11.453-10.761 17.182-16.137 5.348-5.02 10.7-10.036 16.059-15.047 2.503-2.34 5.536-2.792 8.46-1.287 1.9.979 2.636 2.46 2.356 4.572-.304 2.298-1.221 4.259-2.756 6.023-9.623 11.072-19.199 22.187-28.81 33.27-1.189 1.371-1.893 2.854-1.743 4.705.35 4.313-.94 8.18-3.355 11.689-.94 1.367-1.425 2.804-1.518 4.45-.52 9.113-1.066 18.222-1.627 27.331-.136 2.21-.132 4.462-.581 6.611-1.394 6.656-8.3 7.247-12.232 4.776-1.318-.828-1.846-2.183-1.988-3.653-.493-5.092-.93-10.19-1.4-15.284-.59-6.392-1.143-12.787-1.84-19.168-.104-.942-.713-2.035-1.432-2.67-4.176-3.684-5.322-8.561-5.707-13.161" />
    </symbol>
    <symbol id="icon-basket" viewBox="0 0 655.093 472.56">
      <path d="M484.741 428.617c-.358 8.232 3.336 13.176 9.656 14.316 6.318 1.14 11.31-2.033 13.346-8.78.83-2.756 1.221-5.656 1.662-8.512 2.234-14.483 4.431-28.972 6.618-43.462 2.245-14.883 4.472-29.77 6.693-44.658 2.247-15.056 4.495-30.112 6.704-45.173.525-3.581 1.377-7.147.475-10.819-1.314-5.341-5.194-8.637-10.932-9.14-4.867-.425-9.28 2.311-11.242 7.191-.689 1.717-1.096 3.584-1.38 5.421-2.149 13.864-4.241 27.738-6.338 41.608a50300.3 50300.3 0 0 0-12.615 84.09c-.955 6.404-1.893 12.809-2.647 17.918zm-249.2 14.403c7.116.07 13.12-4.821 12.159-14.187-.452-4.401-1.313-8.758-1.975-13.14a254757.32 254757.32 0 0 1-9.677-64.18c-3.17-21.06-6.304-42.124-9.544-63.172-.507-3.282-1.105-6.653-2.361-9.696-1.831-4.437-6.248-6.673-10.763-6.185-5.924.641-9.745 3.496-10.853 8.484a19.505 19.505 0 0 0-.334 6.247c.578 5.246 1.394 10.469 2.178 15.69 2.201 14.658 4.437 29.31 6.653 43.965 2.216 14.655 4.41 29.314 6.644 43.966 2.159 14.146 4.301 28.296 6.564 42.427 1.033 6.45 5.163 9.885 11.31 9.78zM124.663 285.583c.134 1.242.224 2.49.41 3.724 1.157 7.693 2.352 15.381 3.501 23.074 2.895 19.376 5.747 38.758 8.665 58.13 2.789 18.53 5.606 37.054 8.496 55.569.53 3.402 1.108 6.875 2.29 10.083 1.744 4.728 6.046 7.226 10.836 6.988 5.308-.266 9.131-3.224 10.759-8.207 1.12-3.43.673-6.855.16-10.29-1.864-12.467-3.747-24.931-5.61-37.4-2.443-16.342-4.85-32.69-7.317-49.029-2.44-16.17-4.89-32.34-7.437-48.493-.553-3.51-1.13-7.115-2.423-10.388-1.7-4.299-5.177-6.901-9.981-7.067-7.214-.245-12.573 5.627-12.349 13.306zm294.61 157.405c5.856.028 9.778-2.885 11.283-8.66.77-2.96 1.279-5.997 1.744-9.024 2.268-14.761 4.497-29.53 6.71-44.299 2.111-14.096 4.19-28.198 6.275-42.298 2.11-14.27 4.255-28.534 6.283-42.815.604-4.255 1.316-8.573 1.172-12.836-.21-6.179-4.288-9.807-10.848-10.588-5.248-.625-10.067 2.573-11.9 7.943-.33.964-.581 1.966-.735 2.972a47797.246 47797.246 0 0 0-9.314 61.48c-4.175 27.682-8.34 55.366-12.498 83.052-1.313 8.748 3.638 15.034 11.828 15.073zM107.136 472.56c-3.202-.426-6.419-.765-9.604-1.292-10.199-1.685-16.757-7.65-19.334-17.545-1.668-6.406-2.777-12.982-3.744-19.539-1.919-12.981-3.573-26.002-5.322-39.007a26158.462 26158.462 0 0 1-4.965-37.162c-1.648-12.39-3.281-24.78-4.924-37.17-1.65-12.445-3.31-24.89-4.956-37.337-1.542-11.657-3.079-23.316-4.597-34.977-.204-1.564-.283-3.147-.43-4.842h232.55c0 4.05-.067 8.016.013 11.979.173 8.607 2.026 16.79 6.53 24.228 4.652 7.683 11.342 13.073 19.339 16.957.765.372 1.544.719 2.307 1.099 3.26 1.624 5.285 4.152 5.329 7.887.09 7.616.09 15.234.088 22.852-.005 27.692-.023 55.384-.043 83.077-.004 5.401-.128 10.806-.013 16.204.048 2.245.305 4.561.936 6.708 1.695 5.768 5.924 8.51 12.153 8.205 5.562-.272 9.607-3.789 10.691-9.477.337-1.772.424-3.613.424-5.423-.005-39.804.003-79.609-.115-119.413-.016-5.564 2.172-9.155 7.259-11.488 12.916-5.924 21.656-15.519 25.039-29.587 1.49-6.197 1.517-12.502 1.48-18.817-.01-1.59-.002-3.177-.002-4.896H605.96c-.253 2.179-.481 4.35-.761 6.513-3.064 23.663-6.094 47.331-9.219 70.984-3.319 25.12-6.716 50.227-10.11 75.335-2.154 15.93-4.302 31.863-6.598 47.773-.492 3.407-1.385 6.8-2.48 10.067-3.24 9.668-10.087 15.255-20.068 17.047-2.34.421-4.703.71-7.055 1.057H107.136M655.1 186.977c-.27 1.33-.512 2.666-.813 3.988-3.503 15.37-15.632 26.184-31.371 27.726-4.343.425-8.74.366-13.112.366-77.843.012-155.685-.004-233.528-.012h-2.52v-70.397c2.468-.19 4.99-.548 7.512-.55 60.044-.037 120.09-.035 180.135-.04 18.536 0 37.073.029 55.609-.014 6.39-.016 12.621.765 18.372 3.673 11.292 5.711 17.079 15.378 19.355 27.479.102.55.24 1.093.361 1.64v6.141M0 180.153c.3-1.438.559-2.886.905-4.316 3.702-15.282 15.448-25.725 31.09-27.412 4.054-.436 8.17-.414 12.258-.414 78.07-.007 156.142.014 234.212.03h2.475v70.662c-1.81.113-3.557.317-5.305.317-79.72.012-159.441.007-239.161.003-10.278 0-19.42-2.9-26.486-10.732-5.31-5.886-8.508-12.827-9.658-20.692-.064-.442-.218-.87-.33-1.303v-6.143M136.82.001c2.872.331 5.75.614 8.613 1.003 3.926.533 7.355 2.212 10.451 4.653 2.852 2.251 3.93 5.156 2.98 8.618-1.184 4.317-2.432 8.632-3.97 12.832-1.007 2.756-1.835 5.481-1.895 8.412-.092 4.533-.319 9.073-.182 13.6.104 3.392 1.646 6.368 3.923 8.872 2.177 2.396 4.477 4.68 6.721 7.017.824.857 1.64 1.723 2.503 2.63-.143.237-.22.451-.367.59-9.192 8.615-14.752 19.39-18.154 31.308-2.132 7.468-3.708 15.096-5.484 22.663-.235.997-.452 1.576-1.694 1.572-18.647-.042-37.295-.028-55.942-.035-.385 0-.77-.076-1.262-.128-.872-8.375-1.538-16.715-.564-25.03.584-4.985 1.55-10.01 3.082-14.782 3.207-9.997 9.769-17.57 18.415-23.395.989-.666 1.978-1.338 3.013-1.93 1.384-.791 1.874-1.85 1.783-3.498-.39-7.034-.525-14.085-.97-21.116-.34-5.341-1.375-10.538-3.648-15.489-2.829-6.161-1.883-9.096 3.525-13.193 4.51-3.418 9.705-4.515 15.183-4.81 1.011-.056 2.015-.24 3.022-.364h10.918M441.163 114.985c1.749-.188 3.84-.369 5.918-.642 13.003-1.711 26.007-3.402 38.998-5.19 3.876-.533 7.036-2.404 8.59-6.165 1.794-4.341 1.822-8.683-1.096-12.62-2.912-3.927-6.92-5.283-11.714-4.637-3.544.477-7.112.784-10.656 1.268-11.53 1.572-23.068 3.1-34.575 4.83-5.872.883-9.373 5.131-9.39 10.788-.022 6.391 3.175 10.504 9.18 11.72 1.442.292 2.92.404 4.745.648zm88.704 8.644H402.068c0-4.376-.108-8.673.017-12.964.738-25.374 7.279-49.318 18.06-72.174 2.643-5.602 5.688-11.007 9.703-15.786 10.92-12.996 25.752-15.602 40.467-7.101 7.796 4.505 14.005 10.824 19.745 17.624 10.264 12.16 17.353 26.155 23.448 40.736 6.252 14.959 10.908 30.437 15.307 46.008.321 1.14.654 2.276 1.052 3.657" />
      <path d="M315.541 251.844c.015 6.285 5.614 11.888 11.907 11.916 6.392.027 12.052-5.592 12.041-11.957-.009-6.328-5.728-11.99-12.074-11.951-6.207.036-11.888 5.775-11.874 11.992zm-9.79-79.187c0-26.553-.046-53.106.06-79.658a36.713 36.713 0 0 1 1.352-9.735c2.797-9.892 10.632-15.721 20.577-15.7 9.576.02 17.47 6.05 20.172 15.796a37 37 0 0 1 1.327 9.744c.08 53.105.084 106.21-.007 159.315a36.518 36.518 0 0 1-1.497 10.225c-2.908 9.753-10.551 15.187-20.607 15.103-9.54-.08-17.232-5.826-19.928-15.36-.944-3.34-1.373-6.934-1.388-10.414-.11-26.438-.061-52.877-.061-79.316M266.82 123.765h-2.443c-31.496 0-62.992-.016-94.488.043-1.752.004-2.23-.456-2.165-2.168.783-20.816 9.705-36.536 28.656-46.016 1.217-.61 2.507-1.067 3.75-1.625 4.53-2.035 7.237-5.444 8.131-10.391.939-5.193 2.22-10.325 3.104-15.525.775-4.56.372-9.092-1.65-13.334-1.994-4.181-1.524-8.092 1.228-11.682 2.834-3.698 6.676-5.53 11.342-4.863 11.934 1.705 23.678 4.296 35.14 8.073 6.314 2.082 10.014 8.995 7.946 15.278-.608 1.848-1.798 3.809-3.294 5.002-3.96 3.163-6.425 7.126-7.765 11.914a947.567 947.567 0 0 1-2.988 10.477c-2.32 7.933-.719 14.977 4.939 20.984 5.56 5.904 9.042 12.8 9.973 20.835.487 4.204.4 8.474.584 12.998M617.019 123.69h-23.835c-.099-.743-.168-1.41-.28-2.07-1.08-6.337-4.999-10.181-10.927-12.045-3.076-.967-6.284-1.512-9.425-2.272-19.197-4.654-30.577-16.85-34.77-36.004-.946-4.323-2.043-8.612-2.94-12.946-.635-3.061-.066-6.018 2.211-8.226 10.071-9.764 21.202-17.998 35.084-21.34 14.656-3.528 26.678 2.494 33.464 16.24 4.66 9.44 7.182 19.554 9.25 29.825 2.525 12.527 2.708 25.153 2.192 37.844-.148 3.619-.024 7.25-.024 10.995" />
    </symbol>
    <symbol id="icon-card" viewBox="0 0 638.307 480.053">
      <path d="M326.8-.007c3.693.67 7.455 1.086 11.068 2.054 12.404 3.321 22.364 9.937 28.39 21.685 1.54 3.003 3.343 5.87 4.894 8.867 12.104 23.388 24.179 46.792 36.256 70.193.344.668.615 1.373 1.044 2.34-4.897 0-9.484-.013-14.07.003-34.514.117-69.027.194-103.54.376-25.705.136-51.407.432-77.113.598-5.165.034-10.118.947-14.909 2.831-10.496 4.128-20.63 8.892-29.328 16.277-12.668 10.758-20.708 24.468-25.905 40.058-1.419 4.254-2.052 8.548-2.064 13.034-.16 60.552-.386 121.104-.592 181.655-.03 8.873.06 17.795 2.117 26.436 1.463 6.15 3.99 12.05 6.077 18.048.412 1.188.991 2.317 1.552 3.61-5.35 1.246-10.617 1.76-15.929 1.426-12.727-.799-23.81-5.605-33.308-14.061-3.807-3.391-6.7-7.499-8.95-12.071-29.413-59.824-58.826-119.65-88.258-179.464-2.1-4.27-3.47-8.725-3.935-13.461-.042-.428-.195-.846-.297-1.268v-7.315c.449-2.496.752-5.028 1.37-7.48 3.624-14.375 10.898-26.072 24.57-32.957 28.367-14.287 56.663-28.715 85.132-42.791C174.655 67.18 238.32 35.908 301.982 4.639c3-1.474 6.285-2.426 9.514-3.34 2.375-.674 4.879-.887 7.325-1.306h7.979M561.423 405.818c-10.443-.038-17.035 10.286-12.448 18.355 3.001 5.28 4.221 10.822 4.266 16.814.023 3.073.471 6.174 1.036 9.205.583 3.12 2.952 4.807 5.799 4.561 3.425-.294 5.54-2.248 5.792-5.49.18-2.315.253-4.639.317-6.96.166-6.132 1.338-11.94 4.888-17.13 2.738-4.005 2.596-8.272.344-12.413-2.325-4.277-5.922-6.77-9.994-6.942zm-1.41-34.784v.026c10.303 0 20.607.006 30.911-.003 3.021-.003 3.736-.694 3.739-3.716.009-8.253.041-16.506-.047-24.76-.048-4.48-.016-8.994-.553-13.43-1.236-10.218-9.4-18.219-19.606-19.395-9.614-1.107-19.26-.919-28.849.235-8.976 1.078-15.136 6.009-17.828 14.698-.884 2.854-1.083 5.995-1.147 9.015-.244 11.407-.31 22.817-.426 34.226-.027 2.665.428 3.102 3.061 3.102 10.25.004 20.497.002 30.745.002zm-58.344 109.02c-1.301-.246-2.622-.414-3.9-.749-8.11-2.125-14.841-9.577-14.769-18.763.18-22.655.105-45.315.059-67.973-.016-8.232 3.934-13.813 11.078-17.427.444-.224.9-.426 1.354-.633 3.21-1.46 4.784-4.028 4.86-7.485.252-11.408.648-22.816.636-34.224-.022-19.881 12.272-38.137 30.828-45.365 4.172-1.626 8.509-2.618 12.941-2.71 10.405-.216 20.827-.5 31.221-.137 11.363.397 20.927 5.34 28.722 13.523 5.997 6.296 11.225 13.197 13.661 21.716.841 2.94 1.201 6.094 1.273 9.162.3 12.96.472 25.924.543 38.887.017 3.356 1.295 5.393 4.337 6.873 8.924 4.34 13.338 11.654 13.403 21.557.079 11.746.093 23.49.155 35.235.005 1.1.153 2.199.236 3.299v22.607c-.344 1.946-.556 3.928-1.055 5.833-2.033 7.767-6.285 13.596-14.363 15.914-1.368.394-2.796.578-4.197.86H501.669" />
      <path d="M548.125 194.233c-.494-5.316-1.18-10.337-3.106-15.11-2.092-5.179-5.895-8.367-11.336-9.468a34.105 34.105 0 0 0-6.595-.664c-42.6-.138-85.201-.232-127.801-.328-24.487-.055-48.972-.09-73.458-.15-36.064-.089-72.128-.205-108.193-.25-1.55-.002-3.244.308-4.63.973-8.16 3.923-13.258 14.29-11.714 23.219.264 1.528.875 1.805 2.261 1.804 114.235-.028 228.468-.026 342.702-.026h1.87zm-91.158 205.072v32.546c-1.363.089-2.674.25-3.984.249-71.364-.094-142.73-.18-214.094-.332-7.753-.017-15.513-.283-23.257-.673-9.181-.465-17.304-4.003-24.645-9.358-9.507-6.934-16.599-15.713-20.172-27.098-1.892-6.027-1.803-12.272-1.848-18.448-.239-32.578-.372-65.155-.435-97.732-.06-30.752-.017-61.503.037-92.255.038-21.065 16.174-42.497 36.372-47.961 4.486-1.214 9.286-1.731 13.946-1.76 43.936-.28 87.873-.458 131.809-.52 57.57-.082 115.14.184 172.707-.174 16.226-.1 28.733 6.375 39.218 17.947 5.19 5.727 9.54 12.07 10.932 19.821.816 4.544.996 9.24 1.074 13.874.377 22.768.63 45.538.914 68.306.038 2.988.002 2.988-2.926 2.988h-24.483c-.316-4.393-.623-8.672-.941-13.124-.627-.036-1.211-.1-1.794-.1-113.864-.004-227.728-.001-341.592-.03-1.434-.002-2.098.293-2.088 1.877.054 7.09.006 14.18.015 21.27.044 36.458.107 72.914.135 109.371.008 10.72 6.47 18.535 16.902 19.799 3.991.484 8.079.185 12.122.216 48.312.36 96.624.753 144.936 1.055 26.261.165 52.524.169 78.786.245.719.002 1.438.001 2.354.001" />
      <path d="M221.68 343.704c.341-17.727 13.49-32.496 31.027-34.41 5.649-.618 11.033.663 16.09 3.129 3.424 1.67 6.722 3.609 10.042 5.486 3.534 2 4.597 1.998 7.74-.625 10.713-8.939 22.856-9.805 35.094-4.745 12.135 5.017 18.747 14.962 20.142 28.092 1.436 13.506-5.878 27.418-18.102 32.993-13.078 5.963-25.888 5.75-37.4-4.173-.293-.252-.586-.507-.889-.748-2.38-1.895-4.003-1.95-6.4-.012-3.12 2.521-6.427 4.714-10.195 6.14-18.345 6.94-39.864-1.692-45.506-21.684-.863-3.059-1.111-6.291-1.643-9.443" />
      <path d="M548.125 194.233h-1.87c-114.234 0-228.467-.002-342.702.026-1.386.001-1.997-.276-2.261-1.804-1.544-8.928 3.555-19.296 11.713-23.219 1.387-.665 3.08-.975 4.631-.973 36.065.045 72.13.161 108.193.25 24.486.06 48.971.095 73.458.15 42.6.096 85.201.19 127.801.328 2.201.008 4.439.228 6.595.664 5.441 1.101 9.244 4.289 11.336 9.468 1.926 4.773 2.612 9.794 3.106 15.11" fill="#fff" />
    </symbol>
    <symbol id="icon-car" viewBox="0 0 434.96 266.747">
      <path d="M374.103 127.163c-6.24-12.54-12.008-24.319-17.946-36.011-6.252-12.312-16.478-18.639-30.189-19.272-4.944-.228-9.91.081-14.859-.081-3.736-.122-5.226 1.14-5.17 5.149.21 15 .076 30.004.088 45.008.004 5.31.568 5.924 5.756 5.93 18.968.026 37.933.026 56.9-.02 1.622-.003 3.245-.41 5.42-.703zM73.908-.004h214.93c14.154 5.583 17.174 10.113 17.183 25.8.006 8.485.08 16.97-.03 25.453-.051 3.962 1.608 5.626 5.593 5.538 6.927-.151 13.859-.127 20.787-.022 16.177.246 28.048 7.61 35.386 22.006 5.579 10.942 10.936 22 16.314 33.045 3.242 6.659 8.004 11.621 15.18 13.884a751.256 751.256 0 0 0 19.861 5.936c6.177 1.76 10.527 5.544 12.399 11.648 1.473 4.806 2.32 9.808 3.445 14.723v55.22c-.507 1.134-1.052 2.253-1.512 3.406-2.628 6.582-7.133 11.962-14.088 12.878-10.41 1.373-21.017 1.238-31.61 1.748-.451-4.004-.733-6.946-1.118-9.874-3.241-24.589-25.681-43.661-50.259-42.733-26.173.988-47.137 21.114-48.492 46.556-.297 5.59-.297 5.604-5.9 5.604-29.445.004-58.89.023-88.336-.01-9.138-.01-7.497.803-8.272-7.555-2.661-28.732-30.961-49.607-59.197-43.611-22.15 4.704-37.833 22.43-39.791 44.979-.537 6.18-.537 6.182-6.879 6.198-2.548.006-5.099.072-7.644-.021-13.333-.488-22.28-8.22-22.85-21.339-.687-15.822-.261-31.697-.224-47.549.009-3.757 2.067-6.081 5.833-6.67 1.803-.28 3.639-.505 5.46-.506 24.066-.034 48.132-.048 72.198-.013 8.626.013 15.534-3.478 18.657-11.471 5.53-14.157 1.272-33.795-20.966-33.373-21.793.414-43.6.098-65.4.081-3.253-.003-6.56.205-9.738-.313-1.907-.311-4.341-1.39-5.286-2.904-4.251-6.816.2-14.395 8.19-14.395 36.1-.005 72.198-.02 108.297.015 6.123.006 11.684-1.17 16.495-5.39 7.217-6.33 7.372-19.508 4.69-27.013-2.88-8.059-10.017-12.393-19.8-12.4-36.948-.023-73.897-.003-110.845-.017-5.81-.003-7.733-1.808-7.833-7.491-.099-5.519-.133-11.045.005-16.561C49.005 12.916 53.75 6.28 63.714 2.7c3.297-1.184 6.79-1.818 10.194-2.705" />
      <path d="M320.963 228.652c.09 9.137 7.321 16.284 16.48 16.287 9.226.002 16.798-7.6 16.633-16.704-.161-8.983-7.659-16.364-16.628-16.367-9.236-.004-16.577 7.47-16.485 16.784zm12.9 38.095c-7.926-1.664-15.324-4.27-21.656-9.723-11.847-10.203-16.163-28.295-9.934-43.307 6.236-15.03 22.536-24.925 38.279-23.235 17.784 1.907 31.512 14.378 34.373 31.223 2.968 17.482-5.412 33.727-21.766 41.39-3.884 1.82-8.319 2.465-12.5 3.652h-6.796M135.373 244.917c9.362.294 16.934-6.9 17.096-16.24.158-9.056-7.072-16.553-16.204-16.805-8.996-.25-16.572 6.993-16.873 16.127-.3 9.091 6.822 16.63 15.981 16.918zm-2.848 21.83c-7.955-1.586-15.366-4.183-21.72-9.612-12.03-10.28-16.401-28.796-9.954-43.682 6.488-14.984 22.407-24.602 38.041-22.985 17.396 1.798 31.396 14.112 34.397 30.25 3.319 17.845-4.953 34.435-21.501 42.31-3.87 1.84-8.296 2.51-12.467 3.719h-6.796M0 127.425c2.288-5.737 6.59-7.757 12.648-7.738 39.347.124 78.694.085 118.04.036 4.841-.006 9.421.826 11.272 5.745 1.919 5.1 2.217 10.577-.943 15.48-2.434 3.777-6.481 4.148-10.535 4.15-19.25.006-38.498.002-57.746.002-19.816 0-39.63-.09-59.444.055-6.06.045-10.771-1.65-13.292-7.536v-10.194M101.932 82.499c-21.362 0-42.723.01-64.084-.006-11.09-.008-16.817-9.858-11.562-19.848 2.373-4.509 6.5-5.48 11.105-5.48 15.703.003 31.405 0 47.107 0 26.88 0 53.757-.004 80.635.003 11.778.003 17.108 7.741 13.099 18.988-1.408 3.95-5.176 6.308-10.52 6.324-15.703.047-31.405.017-47.107.019h-18.673" />
    </symbol>

    <symbol id="icon-meat" viewBox="0 0 198.293 230.92">
      <path d="M51.625 13.55c10.884 0 23.287 3.05 37.157 9.151 26.908 11.875 50.68 31.667 60.486 41.479 49.477 49.56 41.199 102.254 11.059 132.435-27.435 27.542-72.106 27.542-99.582.082-15.454-15.42-22.817-36.777-20.203-58.465 2.936-24.409-3.893-48.488-22.125-78.175-9.31-15.09-3.142-29.522 1.097-33.728 8.51-8.574 19.246-12.78 32.11-12.78zm58.87 217.37h.066c22.372 0 43.442-8.824 59.323-24.739 8.345-8.33 15.304-18.39 20.121-29.193a93.214 93.214 0 0 0 8.28-37.19c.403-29.438-13.236-58.96-39.458-85.183-10.475-10.555-35.864-31.666-64.602-44.364C58.856-5.336 29.715-3.108 9.948 16.683 5.049 21.629 1.47 29.464.374 37.792c-.94 7.01-.56 17.895 6.531 29.44 16.518 26.8 22.752 48.24 20.212 69.352-3.118 25.892 5.657 51.29 24.08 69.679 15.889 15.916 36.95 24.657 59.297 24.657" />
      <path d="M51.525 40.68c23.511 0 60.768 24.737 78.612 42.632 10.127 10.143 17.59 20.615 22.166 31.005 3.704 8.329 5.525 16.74 5.41 24.987-.19 13.936-6.209 27.872-16.518 38.18-8.237 8.246-19.14 12.78-30.7 12.78-11.537 0-22.422-4.534-30.652-12.78-9.516-9.484-14.06-22.595-12.443-36.036 3.66-30.511-4.585-60.857-25.96-95.573l-.04-.083a2.244 2.244 0 0 1-.24-1.732c.1-.33.371-.99 1.114-1.401 2.473-1.32 5.417-1.979 9.251-1.979zm58.97 163.11c15.173 0 29.472-5.938 40.266-16.74 12.774-12.782 20.236-30.18 20.475-47.58.141-10.144-2.07-20.452-6.563-30.678-5.254-11.956-13.657-23.748-24.97-35.047-19.33-19.377-59.456-46.673-88.178-46.673-6.134 0-11.305 1.239-15.799 3.712-3.744 2.143-6.523 5.69-7.628 9.812-1.113 4.207-.511 8.493 1.707 12.205l.108.166c19.7 31.994 27.335 59.62 24.053 86.832-2.11 17.564 3.843 34.799 16.328 47.333 10.786 10.72 25.06 16.657 40.2 16.657" />
      <path d="M109.992 139.635c4.502 0 8.172 3.709 8.172 8.164 0 4.533-3.67 8.245-8.172 8.245-4.511 0-8.18-3.712-8.18-8.245 0-4.455 3.669-8.164 8.18-8.164zm0 29.933c11.965 0 21.695-9.73 21.695-21.77 0-11.958-9.73-21.688-21.695-21.688-11.974 0-21.705 9.73-21.705 21.689 0 12.038 9.73 21.769 21.705 21.769" />
    </symbol>
    <symbol id="icon-drink" viewBox="0 0 73.48 150.5">
      <path d="M57.316 141.7H16.168c-4.055 0-7.348-3.298-7.348-7.348v-2.954h55.848v2.954c0 4.05-3.297 7.347-7.352 7.347zm7.352-42.66v23.558H8.82V99.039zM23.883 53.483l4.219-4.222c.828-.813 1.293-1.969 1.293-3.13v-19.1H44.09v19.1c0 1.161.469 2.317 1.293 3.13l4.219 4.222c9.718 9.727 15.066 22.633 15.066 36.352v.406H8.82v-.406c0-13.719 5.352-26.625 15.063-36.352zM44.09 8.801v9.433H29.395V8.801zm24.808 58c-3.043-7.352-7.437-13.953-13.062-19.567l-2.922-2.894V4.398A4.406 4.406 0 0 0 48.5 0H24.988a4.403 4.403 0 0 0-4.41 4.398V44.34l-2.93 2.894A59.845 59.845 0 0 0 4.59 66.801 59.954 59.954 0 0 0 0 89.836v44.516c0 8.914 7.254 16.148 16.168 16.148h41.148c8.922 0 16.168-7.234 16.168-16.148V89.836c0-7.93-1.539-15.684-4.586-23.035" />
    </symbol>
    <symbol id="icon-cheese" viewBox="0 0 147.21 115.45">
      <path class="acls-1" d="M45.83 0l-1.77.39C7.43 8.66.18 45.22.18 45.22l-.18.51v69.72h147.21V80.88h-5.66a5.78 5.78 0 0 1 0-11.55h5.66V42.52l-3.53-1.66L47.42.51zm-.71 12.25l15.75 6.67c-2.5 1-4.25 2.5-4.25 4.3 0 3.21 5.07 5.77 11.32 5.77 4.3 0 8-1.28 9.91-3.08l34.86 14.63H13.49c3.37-8.53 11.82-23.09 31.63-28.29zM11.33 52.08h17.52a8.5 8.5 0 0 0-.54 2.82 8.91 8.91 0 0 0 2.49 6.16 8.46 8.46 0 0 0 12 0 8.86 8.86 0 0 0 2.49-6.16 8.76 8.76 0 0 0-.54-2.82h91.14v8.08c-6.28 2.57-11.33 7.7-11.33 15s5.05 12.37 11.33 14.94v13.85H66.35a11.39 11.39 0 0 0 1.59-5.77 11.73 11.73 0 0 0-3.31-8.14 11.27 11.27 0 0 0-16 0 11.73 11.73 0 0 0-3.31 8.14 11.49 11.49 0 0 0 1.59 5.77H11.33zm82.1 11.48a8.25 8.25 0 0 0-6 2.57 8.69 8.69 0 0 0 0 12.18 8.3 8.3 0 0 0 12 0 8.69 8.69 0 0 0 0-12.18 8.25 8.25 0 0 0-6-2.57z" />
    </symbol>
    <symbol id="icon-cupcake" viewBox="0 0 210.56 211">
      <path d="M142.125 21.1c-2.725 0-5.408.703-7.781 2.021-2.382 1.408-4.36 3.342-5.767 5.628a63.567 63.567 0 0 1 13.056 18.638c4.764-2.462 9.918-4.044 15.227-4.747a15.924 15.924 0 0 0-1.715-14.683c-1.45-2.11-3.393-3.869-5.661-5.01a15.373 15.373 0 0 0-7.359-1.847zM84.214 31.65c-22.55 0-40.969 17.76-42.06 39.738l-.052 2.11.027 1.76c.079 4.131-1.073 8.263-3.288 11.691-2.225 3.517-5.425 6.243-9.197 8.001l-1.582.616c-2.339.79-4.308 2.461-5.556 4.57-1.258 2.199-1.714 4.661-1.292 7.122.413 2.462 1.688 4.66 3.578 6.33a10.601 10.601 0 0 0 6.778 2.461h131.62c3.886 0 7.727-.878 11.253-2.548 3.517-1.671 6.621-4.045 9.09-7.122a26.122 26.122 0 0 0 5.188-10.286 26.13 26.13 0 0 0 .282-11.517 26.55 26.55 0 0 0-4.67-10.637c-2.32-3.078-5.301-5.715-8.729-7.562a28.744 28.744 0 0 0-11.121-3.077 26.48 26.48 0 0 0-11.359 2.023l-1.847.878c-4.862 2.463-10.497 2.99-15.728 1.406-5.24-1.582-9.653-5.186-12.308-9.934l-.739-1.406c-3.367-7.384-8.765-13.627-15.552-17.935-6.78-4.396-14.673-6.683-22.736-6.683zm75.17 105.5h-22.525v52.75H150.6zm-43.581 0H94.747v52.75h21.056zm-42.112 0H51.157l8.774 52.75h13.76zM142.125 0c5.434 0 10.796 1.23 15.711 3.516 4.915 2.287 9.257 5.715 12.713 9.936 3.463 4.13 5.951 9.055 7.288 14.33a37.183 37.183 0 0 1 .483 16.177l-.159.614a47.607 47.607 0 0 1 22.956 16.616c5.786 7.738 9.064 17.145 9.416 26.816.343 9.67-2.26 19.165-7.482 27.342-5.214 8.088-12.783 14.506-21.698 18.197l-11.438 68.664c-.412 2.463-1.679 4.66-3.578 6.33a10.634 10.634 0 0 1-6.805 2.462H51.018c-2.489 0-4.907-.879-6.806-2.461-1.899-1.67-3.165-3.868-3.578-6.331L29.803 137.06c-7.289-.35-14.207-3.34-19.588-8.263-5.372-4.924-8.87-11.606-9.9-18.814C-.712 102.687.79 95.3 4.58 89.059a31.793 31.793 0 0 1 16.494-13.451l-.036-1.759a63.03 63.03 0 0 1 7.843-30.506 63.085 63.085 0 0 1 21.574-23.034 62.715 62.715 0 0 1 29.963-9.672c10.638-.614 21.275 1.408 30.902 5.979a36.9 36.9 0 0 1 13.302-12.22A36.852 36.852 0 0 1 142.125 0" />
    </symbol>
    <symbol id="icon-cold" viewBox="0 0 403.907 427.04">
      <path d="M266.335 233.613l-39.267-22.669 37.039-21.383 39.262 22.67zm-13.678 66.45l-38.148-22.026v-45.34l38.152 22.026v45.34zM214.51 146.424l38.152-22.025v42.766L214.51 189.19zm-25.12 42.765l-38.149-22.024V124.4l38.15 22.025zm0 88.848l-38.149 22.026v-45.338l38.15-22.028zm-51.824-44.424l-37.034-21.382 39.262-22.67 37.036 21.383zm247.491 2.742l-56.987 32.898-36.614-21.138 43.313-25.006a12.56 12.56 0 0 0 0-21.754l-45.541-26.295 38.838-22.427 56.991 32.904a12.487 12.487 0 0 0 6.27 1.684c4.342 0 8.56-2.252 10.887-6.281 3.471-6.008 1.411-13.69-4.596-17.157l-44.428-25.651 31.307-18.08c6.008-3.465 8.067-11.148 4.597-17.156-3.466-6.008-11.149-8.068-17.157-4.595l-31.31 18.074V65.073c0-6.937-5.623-12.56-12.56-12.56s-12.56 5.623-12.56 12.56v65.807l-37.725 21.78v-50.015c0-4.486-2.394-8.633-6.281-10.878a12.574 12.574 0 0 0-12.561 0l-44.43 25.65v-44.85L271.5 39.664c6.008-3.468 8.067-11.15 4.596-17.159-3.47-6.008-11.15-8.062-17.157-4.596l-44.43 25.651V12.556c0-6.937-5.624-12.56-12.56-12.56-6.937 0-12.56 5.623-12.56 12.56V43.56l-44.43-25.65c-6.006-3.471-13.69-1.413-17.157 4.595-3.468 6.008-1.412 13.691 4.596 17.159l56.991 32.903v44.85l-44.43-25.65a12.56 12.56 0 0 0-18.839 10.879v50.014l-37.728-21.783V65.073c0-6.937-5.624-12.56-12.56-12.56-6.937 0-12.56 5.623-12.56 12.56v51.302l-26.853-15.503c-6.008-3.47-13.688-1.41-17.157 4.597-3.467 6.008-1.408 13.691 4.596 17.158l26.854 15.502-44.43 25.651c-6.009 3.47-8.064 11.15-4.598 17.157a12.557 12.557 0 0 0 10.888 6.284c2.131 0 4.292-.544 6.27-1.688l56.99-32.902 38.842 22.429-45.544 26.292a12.56 12.56 0 0 0-6.282 10.879c0 4.486 2.395 8.634 6.282 10.874l43.315 25.01-36.613 21.138-56.99-32.902c-6.009-3.47-13.691-1.411-17.158 4.597-3.466 6.008-1.41 13.69 4.597 17.156l44.431 25.652-26.854 15.501c-6.004 3.47-8.063 11.15-4.596 17.158a12.555 12.555 0 0 0 10.888 6.284c2.13 0 4.291-.543 6.269-1.687l26.853-15.503v51.306c0 6.936 5.623 12.56 12.56 12.56 6.936 0 12.56-5.624 12.56-12.56v-65.807l37.728-21.784v52.593c0 4.486 2.391 8.634 6.278 10.875a12.554 12.554 0 0 0 12.56 0l44.431-25.647v42.276l-56.991 32.904c-6.008 3.466-8.064 11.15-4.596 17.156 3.47 6.008 11.151 8.068 17.157 4.598l44.43-25.651v36.15c0 6.938 5.623 12.562 12.56 12.562 6.936 0 12.56-5.624 12.56-12.561v-36.151l44.43 25.65a12.485 12.485 0 0 0 6.269 1.685c4.34 0 8.561-2.251 10.888-6.282 3.47-6.006 1.412-13.69-4.596-17.156l-56.99-32.904v-42.276l44.429 25.65a12.561 12.561 0 0 0 6.281 1.685 12.56 12.56 0 0 0 6.28-1.685 12.557 12.557 0 0 0 6.281-10.875v-52.592l37.728 21.783v65.808c0 6.936 5.624 12.56 12.56 12.56 6.936 0 12.56-5.624 12.56-12.56v-51.306l31.307 18.076a12.499 12.499 0 0 0 6.268 1.687c4.343 0 8.563-2.255 10.89-6.284 3.469-6.008 1.41-13.69-4.598-17.157l-31.307-18.076 44.431-25.651c6.008-3.467 8.064-11.15 4.596-17.157-3.47-6.011-11.152-8.067-17.16-4.596" />
    </symbol>
    <symbol id="icon-organics" viewBox="0 0 455.107 455.107">
      <path d="M237.037 340.362v-41.878l64.506-51.607c1.129 6.238 1.865 12.316 1.865 18.044 0 38.86-29.056 70.679-66.37 75.441zm-85.333-75.44c0-5.729.735-11.807 1.864-18.045l64.507 51.607v41.878c-37.315-4.762-66.371-36.58-66.371-75.44zm85.333-67.098v-83.21c9.787 14.19 22.39 33.63 34.01 54.862zm0 24.693l42.98-35.821c6.53 13.267 12.234 26.82 16.412 39.976l-59.392 47.524zm-18.962 0v51.679l-59.394-47.524c4.179-13.156 9.883-26.71 16.412-39.976zm0-24.693l-34.01-28.348c11.619-21.232 24.222-40.672 34.01-54.863zm2.008-118.328c-3.564 4.565-87.342 112.723-87.342 185.425 0 49.319 37.555 89.541 85.334 94.407v29.41c0 5.24 4.24 9.48 9.481 9.48a9.477 9.477 0 0 0 9.481-9.48v-29.41c47.778-4.866 85.334-45.088 85.334-94.407 0-72.702-83.778-180.86-87.343-185.425-3.592-4.61-11.352-4.61-14.945 0" />
      <path d="M424.324 251.867c-5.472 7.732-11.13 15.732-13.555 24.796-2.52 9.436-1.63 19.436-.76 29.102.918 10.259 1.787 19.944-1.777 26.102-3.667 6.324-12.584 10.434-22.019 14.787-8.741 4.027-17.777 8.194-24.574 14.99-6.796 6.796-10.963 15.833-14.991 24.575-4.343 9.435-8.453 18.352-14.787 22.018-6.166 3.564-15.861 2.684-26.092 1.768-9.686-.88-19.666-1.777-29.112.76-9.054 2.426-17.054 8.083-24.786 13.555-8.584 6.084-16.704 11.824-24.315 11.824-7.612 0-15.732-5.74-24.315-11.824-7.732-5.472-15.732-11.13-24.797-13.555-4.62-1.241-9.379-1.649-14.167-1.649-4.99 0-10 .445-14.934.89-10.268.926-19.936 1.786-26.102-1.778-6.324-3.667-10.435-12.584-14.787-22.019-4.028-8.74-8.195-17.777-14.991-24.574-6.796-6.797-15.834-10.963-24.574-14.99-9.435-4.344-18.352-8.454-22.019-14.788-3.564-6.157-2.694-15.842-1.768-26.092.87-9.666 1.759-19.666-.76-29.112-2.426-9.054-8.083-17.054-13.555-24.786-6.083-8.584-11.824-16.704-11.824-24.315 0-7.612 5.74-15.732 11.824-24.315 5.472-7.732 11.13-15.732 13.556-24.797 2.518-9.435 1.63-19.435.76-29.101-.918-10.26-1.788-19.944 1.776-26.102 3.667-6.325 12.584-10.436 22.02-14.788 8.74-4.028 17.777-8.194 24.573-14.99 6.797-6.796 10.963-15.834 14.99-24.574 4.344-9.436 8.455-18.352 14.788-22.018 6.14-3.575 15.825-2.714 26.093-1.768 9.657.869 19.648 1.768 29.11-.76 9.056-2.427 17.056-8.084 24.788-13.556 8.583-6.083 16.703-11.824 24.315-11.824 7.61 0 15.73 5.741 24.315 11.824 7.732 5.472 15.732 11.129 24.796 13.556 9.426 2.528 19.416 1.629 29.102.76 10.287-.899 19.954-1.779 26.102 1.777 6.324 3.667 10.434 12.583 14.786 22.019 4.028 8.74 8.195 17.777 14.991 24.573 6.796 6.797 15.833 10.964 24.575 14.99 9.434 4.343 18.352 8.454 22.018 14.787 3.564 6.159 2.695 15.843 1.768 26.094-.87 9.666-1.76 19.666.76 29.11 2.426 9.056 8.083 17.056 13.555 24.788 6.084 8.583 11.824 16.703 11.824 24.315 0 7.61-5.74 15.73-11.824 24.315zm15.472 10.962c7.185-10.138 15.315-21.629 15.315-35.277s-8.13-25.14-15.315-35.279c-4.713-6.657-9.167-12.944-10.713-18.721-1.647-6.195-.935-14.12-.184-22.519 1.148-12.741 2.324-25.926-4.251-37.288-6.667-11.536-19.324-17.369-30.49-22.508-7.565-3.492-14.705-6.778-19.102-11.176-4.399-4.398-7.685-11.546-11.176-19.102-5.148-11.167-10.981-23.824-22.51-30.491-11.38-6.583-24.555-5.39-37.295-4.259-8.399.74-16.315 1.454-22.51-.185-5.788-1.547-12.074-6-18.732-10.713C252.695 8.125 241.204-.004 227.556-.004s-25.14 8.13-35.279 15.315c-6.657 4.713-12.944 9.166-18.721 10.713-6.213 1.639-14.14.925-22.519.185-12.732-1.138-25.908-2.333-37.287 4.25-11.537 6.666-17.37 19.324-22.51 30.49-3.49 7.566-6.777 14.704-11.175 19.103-4.398 4.397-11.546 7.685-19.102 11.176-11.167 5.148-23.824 10.981-30.49 22.51-6.575 11.36-5.399 24.545-4.26 37.295.76 8.388 1.463 16.324-.185 22.51-1.546 5.786-6 12.073-10.713 18.73C8.13 202.412 0 213.904 0 227.552c0 13.648 8.13 25.139 15.315 35.277 4.713 6.658 9.167 12.944 10.713 18.723 1.648 6.193.935 14.12.185 22.519-1.148 12.74-2.324 25.925 4.25 37.286 6.666 11.538 19.324 17.371 30.49 22.51 7.566 3.49 14.704 6.777 19.103 11.176 4.398 4.397 7.685 11.545 11.176 19.101 5.147 11.167 10.98 23.824 22.509 30.49 11.37 6.575 24.546 5.39 37.296 4.26 8.379-.769 16.306-1.482 22.51.185 5.786 1.546 12.073 6 18.73 10.713 10.139 7.185 21.631 15.315 35.279 15.315 13.648 0 25.139-8.13 35.277-15.315 6.658-4.713 12.944-9.167 18.723-10.713 6.176-1.667 14.12-.954 22.519-.184 12.73 1.148 25.906 2.342 37.286-4.25 11.538-6.668 17.371-19.325 22.51-30.491 3.49-7.566 6.777-14.705 11.176-19.102 4.397-4.398 11.546-7.685 19.101-11.176 11.167-5.148 23.824-10.981 30.49-22.51 6.575-11.36 5.4-24.546 4.26-37.295-.76-8.39-1.462-16.326.185-22.51 1.546-5.788 6-12.074 10.713-18.732" />
    </symbol>
    <symbol id="icon-cleaner" viewBox="0 0 216 405">
      <path d="M13.5 343.596c0-53.268 17.556-100.873 38.76-153.145 4.728-11.655 9.926-25.287 11.702-39.446 1.032-8.236-.268-15.412-1.533-22.356-.436-2.438-.875-4.798-1.186-7.149h46.758v33.75c0 15.425 16.386 25.374 35.348 36.9C164.747 205.154 189 219.89 189 243v121.5c0 14.888-12.112 27-27 27H40.5c-14.889 0-27-12.112-27-27zM60.75 67.5h-27V47.25c0-25.234 6.817-33.75 27-33.75H175.5v20.25H135c-1.565 0-2.948.62-4.092 1.52-17.076 4.755-29.657 20.403-29.657 38.98V108H67.5V74.25a6.75 6.75 0 0 0-6.75-6.75zm68.37-16.972c1.525 8.745 5.045 16.796 10.085 23.721h-24.454c0-10.3 5.866-19.164 14.368-23.721zm73.38-16.779H189V13.5h13.5zM40.5 405H162c22.337 0 40.5-18.163 40.5-40.5V243c0-30.705-28.903-48.27-52.137-62.384-14.19-8.628-28.862-17.535-28.862-25.365v-40.502a6.75 6.75 0 0 0-6.75-6.749V87.75h38.398c5.888 3.995 12.582 6.991 19.92 8.626l21.218 4.71 2.926-13.173-21.212-4.712c-17.93-3.985-31.052-18.306-33.745-35.952h66.995c3.73 0 6.749-3.022 6.749-6.749V6.75A6.749 6.749 0 0 0 209.25 0H60.75c-36.304 0-40.5 26.965-40.5 47.25v27A6.75 6.75 0 0 0 27 81h27v27a6.75 6.75 0 0 0-6.75 6.75c0 5.831.97 11.158 1.903 16.317 1.13 6.213 2.193 12.085 1.419 18.264-1.573 12.542-6.208 24.684-10.828 36.052C18.004 238.992 0 287.895 0 343.596V364.5C0 386.837 18.163 405 40.5 405" />
      <path d="M108 229.5c29.773 0 54 27.256 54 60.75S137.773 351 108 351s-54-27.256-54-60.75 24.227-60.75 54-60.75zm0 135c37.221 0 67.5-33.31 67.5-74.25S145.221 216 108 216c-37.222 0-67.5 33.31-67.5 74.25S70.779 364.5 108 364.5" />
    </symbol>
    <symbol id="icon-baby" viewBox="0 0 512 468.2">
      <path d="M219.36 262.003c0-27.256-22.177-49.428-49.433-49.428-27.25 0-49.426 22.172-49.426 49.428H150.5c0-10.714 8.719-19.428 19.427-19.428 10.713 0 19.433 8.714 19.433 19.428h30M342.073 212.575c-27.256 0-49.433 22.172-49.433 49.428h30c0-10.714 8.72-19.428 19.433-19.428 10.708 0 19.427 8.714 19.427 19.428h30c0-27.256-22.172-49.428-49.427-49.428M256 349.784c-18.97 0-36.75-10.172-46.412-26.547l-25.839 15.244c15.032 25.475 42.72 41.298 72.251 41.298 29.53 0 57.219-15.823 72.25-41.298l-25.838-15.244c-9.663 16.37-27.448 26.547-46.412 26.547" />
      <path d="M446.088 292.623l-11.26.213-2.937 10.87C410.473 382.892 338.145 438.2 256 438.2c-82.15 0-154.473-55.307-175.89-134.495l-2.938-10.869-11.26-.213c-19.803-.376-35.911-16.803-35.911-36.62 0-9.787 3.811-18.99 10.718-25.912 6.74-6.73 15.688-10.536 25.193-10.714l11.255-.208 2.942-10.874C101.527 129.107 173.855 73.804 256 73.804c27.115 0 49.172 22.057 49.172 49.167 0 27.114-22.057 49.172-49.172 49.172s-49.172-22.058-49.172-49.167h-30c0 43.652 35.516 79.167 79.172 79.167s79.172-35.515 79.172-79.167a78.714 78.714 0 0 0-8.005-34.661C377.479 109.716 417 153.232 431.89 208.299l2.937 10.87 11.26.208c9.505.183 18.453 3.984 25.177 10.703 6.923 6.933 10.735 16.136 10.735 25.923 0 19.817-16.11 36.244-35.912 36.62zm46.39-83.756c-9.551-9.542-21.551-15.848-34.571-18.323C429.78 103.637 348.197 43.799 256 43.799h-10.057c-24.151 0-43.798-19.646-43.798-43.796h-30c0 16.385 5.376 31.536 14.443 43.796h-9.5c-24.15 0-43.802-19.646-43.802-43.796h-30c0 32.593 21.25 60.301 50.615 70.046-46.443 25.531-82.849 68.088-99.808 120.495-13.02 2.475-25.02 8.787-34.583 18.339C6.927 221.476 0 238.21 0 256.003c0 17.572 6.781 34.15 19.088 46.686 9.625 9.798 21.776 16.262 35.005 18.767C82.22 408.366 163.797 468.2 256 468.2c92.203 0 173.781-59.833 201.907-146.744 13.229-2.505 25.38-8.97 35.005-18.767C505.219 290.153 512 273.575 512 256.003c0-17.792-6.927-34.527-19.521-47.136" />
    </symbol>
    <symbol id="icon-pets" viewBox="0 0 411.69 386.29">
      <path d="M138.42 0h3.94a8.35 8.35 0 0 0 1.21.24 100.18 100.18 0 0 1 37.88 9.17 5.66 5.66 0 0 0 6.31-.83A38.06 38.06 0 0 1 203.28.87c1.62-.35 3.26-.58 4.89-.87h3.94l3.32.54c8.91 1.48 16.54 5.73 23.36 11.35a134.16 134.16 0 0 1 36.39 47.35c2.76 5.86 4.86 11.91 5.2 18.44.52 10.19-3.46 18.67-10.18 26.05-8.23 9.05-18.47 14.62-30.19 17.82-2.52.69-2.51.73-1.09 2.8 10.79 15.65 16.31 32.84 15 52-.21 3.18-.62 6.36-1 9.59.73 0 1.44.05 2.13 0 6.6-.49 13.18-1.16 19.78-1.46a155 155 0 0 1 51.93 6 8.17 8.17 0 0 0 8.12-1.58q16.67-13.38 33.41-26.63a30.78 30.78 0 0 1 5.21-3.42c3.39-1.68 6.47-1.07 9.17 1.55a15.08 15.08 0 0 1 2.08 2.44c10.64 15.82 17.62 32.92 18.11 52.25.21 8-.45 15.94-3.76 23.44-.88 2-1.49 4.14-2.24 6.21a5.51 5.51 0 0 0 .4 4.61 104.51 104.51 0 0 1 4.65 10.23c5.48 14.57 7.54 29.84 9 45.22.27 2.95.47 5.91.71 8.86v10.39a26.56 26.56 0 0 1-4 8.85c-14.19 18.82-32.56 31.86-54.66 39.77a225.89 225.89 0 0 1-54.73 12.68c-3.55.34-7.1.65-10.65 1h-17.17c-.7-.11-1.39-.25-2.09-.31-5.33-.53-10.7-.85-16-1.6-20.37-2.89-39.67-9.25-58.22-18.12a113.75 113.75 0 0 1-41.18-33.52 16.38 16.38 0 0 1-3.67-12.31c.44-4.15.72-8.31 1-12.47a183.1 183.1 0 0 1 4.87-34.08c1.64-6.45 3.2-12.92 4.85-19.58h-2.09c-12.69 0-25.39.11-38.08-.05-7.31-.09-14.72 0-21.91-1.07-30.57-4.75-52.32-21.38-64.67-49.81a78.58 78.58 0 0 1-6-43.32c1.83-12.55 6.77-23.87 13.71-34.38.71-1.07 1.42-2.13 2.22-3.35-.93-.3-1.59-.53-2.27-.73-6.46-1.93-12.77-4.25-18.49-7.9-9.76-6.23-17.28-14.35-21-25.55-.6-1.8-.92-3.68-1.37-5.52v-6.44c.54-2.12.92-4.3 1.62-6.36 7.94-23.07 21-42.59 40.25-57.79C47.27 7.83 52.8 3.77 59.47 1.72c2.2-.68 4.48-1.12 6.72-1.66h6.8a1.56 1.56 0 0 0 .46.24c7.16.91 13.43 4 19.13 8.18a6.62 6.62 0 0 0 7.44.73 96.53 96.53 0 0 1 28.33-8.16c3.38-.47 6.71-.7 10.07-1.05zm-6.78 236.35v-2.19c0-9.84-.13-19.67 0-29.51 0-3-1.17-4.66-3.65-6.09-10.87-6.28-17.94-15.73-21.81-27.49-2.18-6.61.24-12.12 6.15-15.78a26.17 26.17 0 0 1 4.47-2.21 57.75 57.75 0 0 1 17.22-3.73c11.59-.76 22.85.64 33.44 5.7 7.25 3.46 9.88 10 6.83 17.4-4.63 11.24-11.44 20.73-22.44 26.65a4.64 4.64 0 0 0-2.58 4.51c0 10.37 0 20.74-.07 31.11 0 .46.08.92.12 1.48 5.21.17 10.33.51 15.44.43a121.78 121.78 0 0 0 16.56-.93c23.88-3.66 40.74-16.57 50-39 5.13-12.38 7.06-25.19 4.34-38.47-2.39-11.67-8-21.72-15.78-30.61a13.26 13.26 0 0 1-3-12.92 74.84 74.84 0 0 0 .83-33c-8.38-43.83-52.25-72.75-96.18-61.72-41.62 10.44-67.41 51.66-58 93.41a16.69 16.69 0 0 1-3.77 15.44c-13.37 15.84-18.57 34.14-14.59 54.48 4.23 21.63 16.46 37.61 36.47 47.19 11 5.29 22.94 6.57 35 6.46 4.96-.03 9.89-.4 15-.61zm242.91-56.46c-3.32 2.63-6.44 5.1-9.55 7.59q-12.64 10.09-25.27 20.22c-3 2.46-6.39 3.44-10.17 2.1a141 141 0 0 0-41.06-7.91 173.82 173.82 0 0 0-37.9 2.66 7.36 7.36 0 0 0-5.14 3.52c-.57.91-1.08 1.86-1.6 2.79-7.15 12.69-16.54 23.27-29 30.95a84.65 84.65 0 0 1-29.22 11.05c-3.73.69-6.38 2.5-7.59 6.17-1.88 5.7-4.05 11.33-5.58 17.12-3.36 12.72-4.54 25.78-5.54 38.85a16.06 16.06 0 0 0 4.48 12.89 109.38 109.38 0 0 0 29.73 22.63c20.34 10.38 42.11 15.64 64.75 17.48a187.23 187.23 0 0 0 56.63-4.26c14.47-3.26 28.48-7.73 41.36-15.29a112.1 112.1 0 0 0 26.53-21.57c2.37-2.61 4-5.51 3.7-9.16-.77-8.66-1.36-17.34-2.49-26-1.93-14.68-5.61-28.85-13.43-41.67a7.88 7.88 0 0 1-.51-7.54c.77-1.8 1.85-3.47 2.64-5.26 1.47-3.37 3.42-6.67 4.13-10.2 3.41-16.95-1.42-32.33-9.9-47.18zM80.2 21.28a16.13 16.13 0 0 0-9.47-3.41c-4.37 0-8.08 1.79-11.61 4.11-18.3 12-31 28.4-39.06 48.66-3.35 8.43-1.72 15.59 4.11 22.11 5.2 5.81 12 8.8 19.3 11 .14 0 .31-.07.61-.14Q42.07 53.77 80.2 21.28zm120.39.07c25.27 21.6 37.4 48.86 36 81.93a2.16 2.16 0 0 0 .47.18 2.34 2.34 0 0 0 .53-.08c8.6-2.25 16-6.47 21.4-13.66a17 17 0 0 0 2.74-16.7 92.36 92.36 0 0 0-19.85-33.15c-7.15-7.52-15.41-13.67-23.89-19.52-5.66-3.94-11.86-3.61-17.4 1zm-44 147.66a58.78 58.78 0 0 0-30.83-.39c-.79.2-1.42 1-2 1.41 4.16 4.26 7.95 8.39 12 12.22 2 1.9 4.73 2.12 7.38 1 6.59-2.64 10.12-8.14 13.45-14.23z" />
    </symbol>
    <symbol id="icon-percent" viewBox="0 0 24 28">
      <path d="M20 20c0-1.094-0.906-2-2-2s-2 0.906-2 2 0.906 2 2 2 2-0.906 2-2zM8 8c0-1.094-0.906-2-2-2s-2 0.906-2 2 0.906 2 2 2 2-0.906 2-2zM24 20c0 3.313-2.688 6-6 6s-6-2.688-6-6 2.688-6 6-6 6 2.688 6 6zM22.5 3c0 0.219-0.078 0.422-0.203 0.594l-16.5 22c-0.187 0.25-0.484 0.406-0.797 0.406h-2.5c-0.547 0-1-0.453-1-1 0-0.219 0.078-0.422 0.203-0.594l16.5-22c0.187-0.25 0.484-0.406 0.797-0.406h2.5c0.547 0 1 0.453 1 1zM12 8c0 3.313-2.688 6-6 6s-6-2.688-6-6 2.688-6 6-6 6 2.688 6 6z"></path>
    </symbol>

    <symbol id="icon-exclusive-offer" fill="none" viewBox="0 0 33 31">
      <rect width="33" height="31" rx="8" fill="#FC0" />
      <path d="M14.624 23.24a19.257 19.257 0 0 1-2.9-.4c-.893-.213-1.58-.427-2.06-.64v-3.96h4.4c0 .427.087.733.26.92.173.173.5.26.98.26.427 0 .733-.067.92-.2.2-.133.3-.333.3-.6 0-.187-.087-.353-.26-.5-.16-.16-.46-.32-.9-.48-1.48-.547-2.627-1.047-3.44-1.5-.8-.467-1.407-1.02-1.82-1.66-.413-.653-.62-1.487-.62-2.5 0-1.373.4-2.46 1.2-3.26.8-.8 2.113-1.293 3.94-1.48v-2.3h2.62V7.2c1.08.067 2.06.227 2.94.48.88.24 1.533.493 1.96.76v3.58h-4.2c0-.667-.367-1-1.1-1-.44 0-.76.06-.96.18-.187.107-.28.3-.28.58 0 .213.087.373.26.48.173.107.5.233.98.38 1.253.4 2.267.807 3.04 1.22.787.4 1.42.947 1.9 1.64.493.68.74 1.56.74 2.64 0 1.52-.453 2.707-1.36 3.56-.893.853-2.2 1.36-3.92 1.52v2.42h-2.62v-2.4z" fill="#fff" />
    </symbol>
    <symbol id="icon-facebook" viewBox="0 0 16 28">
      <path d="M14.984 0.187v4.125h-2.453c-1.922 0-2.281 0.922-2.281 2.25v2.953h4.578l-0.609 4.625h-3.969v11.859h-4.781v-11.859h-3.984v-4.625h3.984v-3.406c0-3.953 2.422-6.109 5.953-6.109 1.687 0 3.141 0.125 3.563 0.187z"></path>
    </symbol>
    <symbol id="icon-google" viewBox="0 0 512 512">
      <path style="fill:#FBBB00;" d="M113.47,309.408L95.648,375.94l-65.139,1.378C11.042,341.211,0,299.9,0,256 c0-42.451,10.324-82.483,28.624-117.732h0.014l57.992,10.632l25.404,57.644c-5.317,15.501-8.215,32.141-8.215,49.456 C103.821,274.792,107.225,292.797,113.47,309.408z" />
      <path style="fill:#518EF8;" d="M507.527,208.176C510.467,223.662,512,239.655,512,256c0,18.328-1.927,36.206-5.598,53.451 c-12.462,58.683-45.025,109.925-90.134,146.187l-0.014-0.014l-73.044-3.727l-10.338-64.535 c29.932-17.554,53.324-45.025,65.646-77.911h-136.89V208.176h138.887L507.527,208.176L507.527,208.176z" />
      <path style="fill:#28B446;" d="M416.253,455.624l0.014,0.014C372.396,490.901,316.666,512,256,512 c-97.491,0-182.252-54.491-225.491-134.681l82.961-67.91c21.619,57.698,77.278,98.771,142.53,98.771 c28.047,0,54.323-7.582,76.87-20.818L416.253,455.624z" />
      <path style="fill:#F14336;" d="M419.404,58.936l-82.933,67.896c-23.335-14.586-50.919-23.012-80.471-23.012 c-66.729,0-123.429,42.957-143.965,102.724l-83.397-68.276h-0.014C71.23,56.123,157.06,0,256,0 C318.115,0,375.068,22.126,419.404,58.936z" />
    </symbol>
    <symbol id="icon-trash" viewBox="0 0 32 32">
      <path d="M6 32h20l2-22h-24zM20 4v-4h-8v4h-10v6l2-2h24l2 2v-6h-10zM18 4h-4v-2h4v2z"></path>
    </symbol>
     <symbol id="icon-cart" viewBox="0 0 372.987 456.533">
      <path d="M236.01 322.473H42.63C19.083 322.473 0 303.384 0 279.844s19.084-42.624 42.63-42.624h193.38c28.515 0 51.717-24.183 51.717-53.915 0-29.73-23.202-53.92-51.718-53.92H42.63C19.084 129.385 0 110.308 0 86.761V42.632C0 19.085 19.084.002 42.63.002c23.54 0 42.623 19.083 42.623 42.63v1.507H236.01c75.527 0 136.976 62.425 136.976 139.166 0 76.736-61.449 139.168-136.976 139.168M326.639 411.352c0 24.953-20.228 45.181-45.188 45.181-24.955 0-45.187-20.228-45.187-45.18 0-24.955 20.232-45.189 45.187-45.189 24.96 0 45.188 20.234 45.188 45.188M106.358 411.352c0 24.953-20.229 45.181-45.188 45.181-24.954 0-45.188-20.228-45.188-45.18 0-24.955 20.234-45.189 45.188-45.189 24.96 0 45.188 20.234 45.188 45.188"/>
    </symbol>
    <symbol id="icon-checkmark" viewBox="0 0 20 20">
      <path d="M0 11l2-2 5 5 11-11 2 2-13 13z"></path>
    </symbol>
    <symbol id="icon-cross" viewBox="0 0 20 20">
      <path d="M14.348 14.849c-0.469 0.469-1.229 0.469-1.697 0l-2.651-3.030-2.651 3.029c-0.469 0.469-1.229 0.469-1.697 0-0.469-0.469-0.469-1.229 0-1.697l2.758-3.15-2.759-3.152c-0.469-0.469-0.469-1.228 0-1.697s1.228-0.469 1.697 0l2.652 3.031 2.651-3.031c0.469-0.469 1.228-0.469 1.697 0s0.469 1.229 0 1.697l-2.758 3.152 2.758 3.15c0.469 0.469 0.469 1.229 0 1.698z"></path>
    </symbol>
    <symbol id="icon-angle-double-right" viewBox="0 0 16 28">
      <path d="M9.297 15c0 0.125-0.063 0.266-0.156 0.359l-7.281 7.281c-0.094 0.094-0.234 0.156-0.359 0.156s-0.266-0.063-0.359-0.156l-0.781-0.781c-0.094-0.094-0.156-0.234-0.156-0.359s0.063-0.266 0.156-0.359l6.141-6.141-6.141-6.141c-0.094-0.094-0.156-0.234-0.156-0.359s0.063-0.266 0.156-0.359l0.781-0.781c0.094-0.094 0.234-0.156 0.359-0.156s0.266 0.063 0.359 0.156l7.281 7.281c0.094 0.094 0.156 0.234 0.156 0.359zM15.297 15c0 0.125-0.063 0.266-0.156 0.359l-7.281 7.281c-0.094 0.094-0.234 0.156-0.359 0.156s-0.266-0.063-0.359-0.156l-0.781-0.781c-0.094-0.094-0.156-0.234-0.156-0.359s0.063-0.266 0.156-0.359l6.141-6.141-6.141-6.141c-0.094-0.094-0.156-0.234-0.156-0.359s0.063-0.266 0.156-0.359l0.781-0.781c0.094-0.094 0.234-0.156 0.359-0.156s0.266 0.063 0.359 0.156l7.281 7.281c0.094 0.094 0.156 0.234 0.156 0.359z"></path>
    </symbol>
    <symbol id="icon-sms" viewBox="0 0 455 455">
      <path d="M263.356,286.243c-4.143,0-7.5,3.358-7.5,7.5v75.572H66.644v-189.22h57.74c4.143,0,7.5-3.358,7.5-7.5s-3.357-7.5-7.5-7.5 h-57.74v-31.768c0-13.188,10.729-23.917,23.918-23.917h10.799c4.143,0,7.5-3.358,7.5-7.5s-3.357-7.5-7.5-7.5H90.562 c-21.459,0-38.918,17.458-38.918,38.917v282.755c0,21.459,17.459,38.917,38.918,38.917h141.377 c21.459,0,38.918-17.458,38.918-38.917V293.743C270.856,289.601,267.499,286.243,263.356,286.243z M231.938,440H90.562 c-13.188,0-23.918-10.729-23.918-23.917v-31.768h189.213v31.768C255.856,429.271,245.127,440,231.938,440z"/>
	    <path d="M195.566,105.324c-10.906-1.784-11.366-2.85-11.366-5.089c0-3.959,6.645-5.005,10.158-5.005 c5.645,0,9.286,1.902,9.967,3.781c1.411,3.894,5.712,5.909,9.606,4.496c3.895-1.411,5.908-5.712,4.497-9.606 c-3.056-8.433-12.279-13.671-24.07-13.671c-14.813,0-25.158,8.226-25.158,20.005c0,15.976,14.989,18.428,23.944,19.893 c10.913,1.785,11.373,2.853,11.373,5.098c0,3.959-6.646,5.005-10.159,5.005c-5.645,0-9.287-1.903-9.967-3.783 c-1.409-3.896-5.712-5.908-9.604-4.501c-3.895,1.409-5.91,5.709-4.501,9.604c3.053,8.438,12.276,13.68,24.072,13.68 c14.813,0,25.159-8.226,25.159-20.005C219.518,109.242,204.524,106.789,195.566,105.324z"/>
      <path d="M333.562,105.324c-10.906-1.784-11.366-2.85-11.366-5.089c0-3.959,6.645-5.005,10.158-5.005 c5.644,0,9.286,1.903,9.968,3.782c1.411,3.894,5.711,5.91,9.606,4.495c3.895-1.412,5.907-5.713,4.495-9.607 c-3.057-8.432-12.279-13.67-24.069-13.67c-14.813,0-25.158,8.226-25.158,20.005c0,15.976,14.989,18.428,23.944,19.893 c10.913,1.785,11.373,2.853,11.373,5.098c0,3.959-6.646,5.005-10.159,5.005c-5.646,0-9.288-1.904-9.969-3.784 c-1.409-3.894-5.707-5.912-9.604-4.5c-3.895,1.41-5.909,5.71-4.499,9.605c3.054,8.438,12.277,13.679,24.072,13.679 c14.813,0,25.159-8.226,25.159-20.005C357.513,109.242,342.52,106.789,333.562,105.324z"/>
      <path d="M287.29,80.693c-2.949-1.087-6.26-0.221-8.299,2.167l-15.635,18.317l-15.635-18.317c-2.039-2.389-5.353-3.255-8.299-2.167 c-2.947,1.086-4.905,3.895-4.905,7.037v50c0,4.142,3.357,7.5,7.5,7.5s7.5-3.358,7.5-7.5v-29.661l8.135,9.53 c1.425,1.669,3.509,2.631,5.704,2.631s4.279-0.961,5.704-2.631l8.135-9.53v29.661c0,4.142,3.357,7.5,7.5,7.5s7.5-3.358,7.5-7.5v-50 C292.195,84.588,290.237,81.78,287.29,80.693z"/>
      <path d="M361.711,32.448C335.363,11.523,300.434,0,263.355,0c-37.079,0-72.01,11.524-98.356,32.448 c-26.854,21.328-41.643,49.839-41.643,80.282c0,53.437,45.967,99.009,110.149,110.165c1.168,16.66-4.858,33.198-16.639,45.091 c-2.131,2.151-2.759,5.371-1.594,8.165c1.165,2.793,3.895,4.613,6.922,4.613c34.298,0,63.751-24.484,70.694-57.815 c64.351-11.061,110.467-56.692,110.467-110.219C403.356,82.288,388.566,53.776,361.711,32.448z M285.178,208.966 c-3.906,0.54-6.728,4.01-6.457,7.944c0.002,0.035,0.005,0.069,0.008,0.104c-3.452,22.079-19.215,39.739-39.588,46.15 c7.824-13.859,11.039-30.124,8.82-46.213c0.001-0.015,0.002-0.029,0.003-0.043c0.271-3.933-2.551-7.404-6.456-7.944 c-59.77-8.261-103.151-48.733-103.151-96.233c0-53.889,56.074-97.73,124.999-97.73c68.926,0,125.001,43.841,125.001,97.73 C388.356,160.239,344.964,200.713,285.178,208.966z"/>
    </symbol>
    <symbol id="icon-location" viewBox="0 0 30 32">
      <path d="M16 0c-5.523 0-10 4.477-10 10 0 10 10 22 10 22s10-12 10-22c0-5.523-4.477-10-10-10zM16 16c-3.314 0-6-2.686-6-6s2.686-6 6-6 6 2.686 6 6-2.686 6-6 6z"></path>
    </symbol>
    <symbol id="icon-heart" viewBox="0 0 16 28">
      <path d="M23.6 2c-3.363 0-6.258 2.736-7.599 5.594-1.342-2.858-4.237-5.594-7.601-5.594-4.637 0-8.4 3.764-8.4 8.401 0 9.433 9.516 11.906 16.001 21.232 6.13-9.268 15.999-12.1 15.999-21.232 0-4.637-3.763-8.401-8.4-8.401z"></path>
    </symbol>
    <symbol id="icon-user" viewBox="0 0 16 28">
      <path d="M288 353.306v-26.39c35.249-19.864 64-69.386 64-118.916 0-79.529 0-144-96-144s-96 64.471-96 144c0 49.53 28.751 99.052 64 118.916v26.39c-108.551 8.874-192 62.21-192 126.694h448c0-64.484-83.449-117.82-192-126.694z"></path>
    </symbol>
     <symbol id="icon-location" viewBox="0 0 32 32">
      <path d="M16 0c-5.523 0-10 4.477-10 10 0 10 10 22 10 22s10-12 10-22c0-5.523-4.477-10-10-10zM16 16c-3.314 0-6-2.686-6-6s2.686-6 6-6 6 2.686 6 6-2.686 6-6 6z"></path>
    </symbol>
    <symbol id="icon-circle-with-plus" viewBox="0 0 20 20">
    <path d="M10 1.6c-4.639 0-8.4 3.761-8.4 8.4s3.761 8.4 8.4 8.4 8.4-3.761 8.4-8.4c0-4.639-3.761-8.4-8.4-8.4zM15 11h-4v4h-2v-4h-4v-2h4v-4h2v4h4v2z"></path>
    </symbol>
    <symbol id="icon-home3" viewBox="0 0 32 32">
      <path d="M32 19l-6-6v-9h-4v5l-6-6-16 16v1h4v10h10v-6h4v6h10v-10h4z"></path>
    </symbol>
    <symbol id="icon-minus" viewBox="0 0 22 28">
      <path d="M22 11.5v3c0 0.828-0.672 1.5-1.5 1.5h-19c-0.828 0-1.5-0.672-1.5-1.5v-3c0-0.828 0.672-1.5 1.5-1.5h19c0.828 0 1.5 0.672 1.5 1.5z"></path>
    </symbol>
  </defs>
</svg>
